<svg width="202" height="32" viewBox="0 0 202 32" fill="none" xmlns="http://www.w3.org/2000/svg">
<path d="M39.52 18.44C39.7333 18.28 39.96 18.24 40.2 18.32C40.44 18.4 40.5867 18.5467 40.64 18.76C40.6933 18.9733 40.6267 19.1733 40.44 19.36C38.12 21.36 35.8933 23.08 33.76 24.52C31.6533 25.96 29.4667 27.1467 27.2 28.08C21.6 30.3733 16.76 31.0133 12.68 30C10.6533 29.52 9.06667 28.52 7.92 27C6.8 25.4533 6.42667 23.6533 6.8 21.6C7.2 19.3867 8.38667 17.1067 10.36 14.76C6.36 12.7333 3.02667 9.94667 0.36 6.4C0.2 6.18666 0.186667 5.98667 0.32 5.8C0.453333 5.58667 0.64 5.48 0.88 5.48C1.09333 5.48 1.29333 5.57333 1.48 5.76C4.04 9.17333 7.29333 11.84 11.24 13.76C12.3333 12.56 13.7067 11.28 15.36 9.92C19.0933 6.8 23.2 4.44 27.68 2.84C30.5867 1.8 33.08 1.22666 35.16 1.12C38.1467 0.933332 40.0667 1.54667 40.92 2.96C41.6933 4.18666 41.52 5.96 40.4 8.28C39.44 10.2533 38.0133 11.9733 36.12 13.44C32.84 16 28.88 17.4267 24.24 17.72C19.9467 18.0133 15.7467 17.24 11.64 15.4C8.14667 19.4 7.10667 22.7867 8.52 25.56C9.88 28.3333 13.1333 29.4533 18.28 28.92C22.1467 28.5467 25.7733 27.4533 29.16 25.64C32.5733 23.8267 36.0267 21.4267 39.52 18.44ZM13.24 13.64C13.0533 13.8533 12.8267 14.0933 12.56 14.36C16.6933 16.1467 20.9067 16.8133 25.2 16.36C29.4933 15.9067 33.0667 14.4267 35.92 11.92C37.6 10.4533 38.8133 8.78667 39.56 6.92C39.7467 6.46667 39.88 6.08 39.96 5.76C40.0667 5.44 40.0933 5.06667 40.04 4.64C39.9867 4.21333 39.8267 3.85333 39.56 3.56C38.92 2.76 37.64 2.37333 35.72 2.4C32.2533 2.42667 28.1733 3.65333 23.48 6.08C19.6667 8.05333 16.2533 10.5733 13.24 13.64ZM68.7538 18.6C68.9404 18.4133 69.1404 18.36 69.3538 18.44C69.5938 18.52 69.7404 18.6667 69.7938 18.88C69.8738 19.0933 69.8338 19.3067 69.6738 19.52C69.5138 19.7067 69.2338 20.04 68.8338 20.52C68.4338 20.9733 68.1271 21.3333 67.9138 21.6C67.7004 21.84 67.3938 22.16 66.9938 22.56C66.5938 22.96 66.2471 23.2933 65.9538 23.56C65.6604 23.8 65.3138 24.0533 64.9138 24.32C64.5138 24.5867 64.1138 24.8 63.7138 24.96C63.2338 25.2 62.6738 25.2533 62.0338 25.12C61.4204 24.9867 61.0204 24.64 60.8338 24.08C60.7804 23.9467 60.7538 23.8133 60.7538 23.68C60.7538 23.52 60.7538 23.3867 60.7538 23.28C60.7804 23.1467 60.8204 23 60.8738 22.84C60.9538 22.68 61.0204 22.56 61.0738 22.48C61.1271 22.3733 61.2071 22.24 61.3138 22.08C61.4471 21.92 61.5271 21.8133 61.5538 21.76C61.6071 21.68 61.7004 21.56 61.8338 21.4C61.8338 21.3733 62.0338 21.1333 62.4338 20.68C62.8338 20.2 63.1138 19.8267 63.2738 19.56C63.5404 19.08 63.5138 18.8 63.1938 18.72C62.8738 18.6133 62.4871 18.6133 62.0338 18.72C61.9804 18.72 61.9404 18.72 61.9138 18.72C61.8871 18.72 61.8471 18.7333 61.7938 18.76C61.7404 18.76 61.7004 18.76 61.6738 18.76C61.4071 18.7867 60.9538 18.84 60.3138 18.92C59.6738 18.9733 59.1538 19.0267 58.7538 19.08C58.3538 19.1067 57.8738 19.12 57.3138 19.12C56.7804 19.0933 56.3004 19.0267 55.8738 18.92C55.5538 19.24 55.2471 19.52 54.9538 19.76C54.9271 19.8133 54.9004 19.8533 54.8738 19.88C54.7938 19.9333 54.7138 19.9867 54.6338 20.04C54.5271 20.1467 54.4204 20.24 54.3138 20.32L54.2738 20.36C53.9804 20.6 53.7271 20.8 53.5138 20.96C53.3271 21.0933 53.0604 21.28 52.7138 21.52C52.3938 21.7333 52.1138 21.8933 51.8738 22C51.6338 22.08 51.3404 22.1867 50.9938 22.32C50.6471 22.4533 50.3538 22.5067 50.1138 22.48C49.8738 22.4267 49.5804 22.3733 49.2338 22.32C48.8604 22.1867 48.5804 21.9867 48.3938 21.72C48.2338 21.4533 48.1404 21.2 48.1138 20.96C48.1138 20.72 48.1271 20.4 48.1538 20C48.1804 19.5733 48.1938 19.2533 48.1938 19.04C48.1404 18.5867 48.0071 18.2533 47.7938 18.04C47.5804 17.8267 47.3138 17.7467 46.9938 17.8C46.6738 17.8533 46.3404 17.9467 45.9938 18.08C45.6738 18.2133 45.3138 18.4133 44.9138 18.68C44.5138 18.9467 44.1938 19.1733 43.9538 19.36C43.7138 19.52 43.4738 19.7067 43.2338 19.92C41.5004 21.36 40.1804 22.8133 39.2737 24.28V24.32C39.1937 24.48 39.1004 24.7333 38.9937 25.08C38.8604 25.4 38.7671 25.64 38.7137 25.8C38.6071 26.04 38.4337 26.1867 38.1937 26.24C37.9271 26.2667 37.7137 26.2133 37.5537 26.08C37.3937 25.92 37.3537 25.7067 37.4337 25.44C38.4471 22.8 39.9538 18.84 41.9538 13.56C43.9538 8.25333 45.4738 4.28 46.5138 1.64C46.5938 1.4 46.7538 1.26666 46.9938 1.24C47.2604 1.18667 47.4738 1.24 47.6338 1.4C47.8204 1.56 47.8604 1.76 47.7538 2C47.6204 2.37333 45.2871 8.52 40.7538 20.44C41.1804 19.9867 41.5938 19.5867 41.9938 19.24C43.8071 17.6933 45.3271 16.8 46.5538 16.56C47.2204 16.4 47.8338 16.4933 48.3938 16.84C48.9804 17.1867 49.3271 17.7067 49.4338 18.4C49.4871 18.56 49.4471 18.9733 49.3138 19.64C49.2071 20.3067 49.2204 20.7067 49.3538 20.84C49.8071 21.64 51.1938 21.12 53.5138 19.28C53.8338 19.0133 54.1671 18.72 54.5138 18.4C53.8471 18 53.3538 17.4667 53.0338 16.8C52.7404 16.1333 52.7271 15.4533 52.9938 14.76C53.2071 14.2 53.6738 13.6933 54.3938 13.24C55.1138 12.7867 55.8471 12.5867 56.5938 12.64C57.3671 12.6667 57.8871 13.0267 58.1538 13.72C58.6071 14.8133 58.1938 16.16 56.9138 17.76C57.3404 17.7867 57.9004 17.7733 58.5938 17.72C58.8871 17.6933 59.3004 17.64 59.8338 17.56C60.3938 17.48 60.8738 17.4133 61.2738 17.36C61.7004 17.28 62.1538 17.2533 62.6338 17.28C63.1138 17.28 63.5271 17.3467 63.8738 17.48C64.2204 17.6133 64.4871 17.7867 64.6738 18C64.8604 18.1867 64.9271 18.44 64.8738 18.76C64.8204 19.0533 64.7671 19.3067 64.7138 19.52C64.6871 19.7067 64.5404 19.9867 64.2738 20.36C64.0071 20.7067 63.8338 20.9333 63.7538 21.04C63.6738 21.1467 63.5004 21.3733 63.2338 21.72C63.1804 21.7733 63.0871 21.88 62.9538 22.04C62.8204 22.2 62.7004 22.3333 62.5938 22.44C62.4871 22.5467 62.3804 22.68 62.2738 22.84C62.1938 23 62.1538 23.1467 62.1538 23.28C62.1271 23.44 62.1404 23.5733 62.1937 23.68C62.2471 23.7867 62.3271 23.8533 62.4338 23.88C62.5404 23.88 62.6471 23.88 62.7538 23.88C62.8871 23.8533 63.0204 23.8133 63.1538 23.76C63.3138 23.68 63.4471 23.6133 63.5538 23.56C63.6871 23.5067 63.8071 23.44 63.9138 23.36C64.2604 23.1467 64.6071 22.9067 64.9538 22.64C65.3004 22.3733 65.6604 22.04 66.0338 21.64C66.4338 21.2133 66.7271 20.9067 66.9138 20.72C67.1271 20.5067 67.4604 20.1333 67.9138 19.6C68.3671 19.04 68.6471 18.7067 68.7538 18.6ZM54.6338 16.88C54.8204 17.0933 55.0738 17.2667 55.3938 17.4C55.6871 17.0533 55.9404 16.7333 56.1538 16.44C56.3404 16.1733 56.5004 15.8933 56.6338 15.6C56.7671 15.3067 56.8604 15.0133 56.9138 14.72C56.9671 14.4267 56.8871 14.2267 56.6738 14.12C56.4871 13.9867 56.1671 13.9733 55.7138 14.08C55.0204 14.24 54.5404 14.6 54.2738 15.16C54.0071 15.6933 54.1271 16.2667 54.6338 16.88ZM77.7819 18.6C78.1285 18.3333 78.4085 18.3867 78.6219 18.76C78.8352 19.1333 78.7819 19.4533 78.4619 19.72C76.3552 21.32 74.4885 22.52 72.8619 23.32C71.2352 24.0933 70.0619 24.1467 69.3419 23.48C68.9685 23.1067 68.7152 22.64 68.5819 22.08C68.4752 21.52 68.4485 21 68.5019 20.52C68.5552 20.0133 68.6885 19.4267 68.9019 18.76C69.1419 18.0667 69.3419 17.5333 69.5019 17.16C69.6885 16.7867 69.9152 16.3333 70.1819 15.8C70.3419 15.56 70.5285 15.44 70.7419 15.44C70.9552 15.44 71.1285 15.5467 71.2619 15.76C71.4219 15.9733 71.4352 16.2 71.3019 16.44C71.2219 16.6267 71.1419 16.8 71.0619 16.96C70.9819 17.12 70.8619 17.3733 70.7019 17.72C70.5419 18.0667 70.4085 18.4 70.3019 18.72C70.2219 19.0133 70.1152 19.36 69.9819 19.76C69.8752 20.1333 69.8085 20.4667 69.7819 20.76C69.7819 21.0533 69.7952 21.3467 69.8219 21.64C69.8485 21.9067 69.9419 22.1333 70.1019 22.32C70.2885 22.48 70.5285 22.5733 70.8219 22.6C71.0885 22.6533 71.4219 22.6 71.8219 22.44C72.2219 22.28 72.5552 22.1333 72.8219 22C73.0885 21.84 73.4485 21.6 73.9019 21.28C74.3819 20.96 74.6485 20.7867 74.7019 20.76C75.6885 20.1467 76.7152 19.4267 77.7819 18.6ZM71.9819 14.08C71.8752 14.2933 71.6885 14.4 71.4219 14.4C71.1819 14.4 70.9952 14.2933 70.8619 14.08C70.7552 13.84 70.7552 13.6133 70.8619 13.4C70.9952 13.1867 71.1819 13.08 71.4219 13.08C71.6885 13.08 71.8752 13.1867 71.9819 13.4C72.1152 13.6133 72.1152 13.84 71.9819 14.08ZM85.5878 18.32C85.8545 18.24 86.0678 18.2933 86.2278 18.48C86.3878 18.6667 86.4411 18.88 86.3878 19.12C86.3611 19.36 86.2145 19.52 85.9478 19.6C83.9478 20.1333 82.5078 20.56 81.6278 20.88C81.8678 21.1467 82.0278 21.32 82.1078 21.4C82.5345 21.9067 82.7211 22.4267 82.6678 22.96C82.6145 23.4933 82.4278 23.9733 82.1078 24.4C81.8145 24.8267 81.4011 25.24 80.8678 25.64C80.3345 26.0133 79.8145 26.3333 79.3078 26.6C78.8011 26.8667 78.3211 27.08 77.8678 27.24C75.9745 27.88 74.6278 27.9067 73.8278 27.32C72.9745 26.7067 73.0811 25.6933 74.1478 24.28C75.3211 22.7333 77.0278 21.4533 79.2678 20.44C78.9745 20.2 78.7611 20.0133 78.6278 19.88C77.5878 18.84 76.9878 17.9867 76.8278 17.32C76.6945 16.76 76.7611 16.2267 77.0278 15.72C77.2945 15.2133 77.6811 14.7867 78.1878 14.44C78.7211 14.0933 79.2545 13.8133 79.7878 13.6C80.3211 13.36 80.8411 13.1733 81.3478 13.04C81.6145 12.9867 81.8278 13.0533 81.9878 13.24C82.1478 13.4267 82.2011 13.64 82.1478 13.88C82.0945 14.0933 81.9478 14.24 81.7078 14.32C80.3745 14.6133 79.3478 15.12 78.6278 15.84C78.4145 16.0533 78.2678 16.2533 78.1878 16.44C78.1078 16.6267 78.0945 16.8267 78.1478 17.04C78.2011 17.2267 78.2811 17.4133 78.3878 17.6C78.4945 17.76 78.6411 17.9467 78.8278 18.16C79.1478 18.56 79.7345 19.1333 80.5878 19.88C81.7078 19.4533 83.3745 18.9333 85.5878 18.32ZM81.1478 22.32C81.0145 22.0267 80.7611 21.7067 80.3878 21.36C78.2811 22.24 76.6545 23.3467 75.5078 24.68C75.2945 24.92 75.1345 25.1333 75.0278 25.32C74.8945 25.48 74.8011 25.6667 74.7478 25.88C74.6678 26.0667 74.7078 26.2133 74.8678 26.32C75.0011 26.4 75.2545 26.4267 75.6278 26.4C76.1611 26.4 76.8545 26.24 77.7078 25.92C78.0278 25.7867 78.3345 25.6533 78.6278 25.52C78.9478 25.3867 79.3078 25.2 79.7078 24.96C80.1345 24.6933 80.4545 24.44 80.6678 24.2C80.9078 23.9333 81.1078 23.64 81.2678 23.32C81.4278 22.9733 81.3878 22.64 81.1478 22.32ZM133.203 19.04C133.416 18.88 133.643 18.8533 133.883 18.96C134.123 19.04 134.269 19.1867 134.323 19.4C134.376 19.5867 134.309 19.7733 134.123 19.96C132.416 21.32 130.616 22.4 128.723 23.2C127.416 23.7333 126.256 23.7733 125.243 23.32C124.229 22.8667 123.456 21.9867 122.923 20.68C122.789 20.36 122.656 19.96 122.523 19.48C122.389 18.9733 122.243 18.4933 122.083 18.04C121.949 17.5867 121.789 17.2 121.603 16.88C121.016 17.0667 120.469 17.24 119.963 17.4C117.856 18.04 116.136 18.4533 114.803 18.64L108.763 31.44C108.603 31.68 108.416 31.8 108.203 31.8C107.989 31.8 107.803 31.6933 107.643 31.48C107.509 31.2667 107.496 31.04 107.603 30.8C108.243 29.4667 109.189 27.4667 110.443 24.8C111.723 22.1333 112.669 20.1333 113.283 18.8C112.056 18.88 111.309 18.56 111.043 17.84C110.909 17.52 110.896 17.2133 111.003 16.92C111.136 16.6 111.363 16.2933 111.683 16C112.029 15.7067 112.309 15.4933 112.523 15.36C112.763 15.2 113.056 15 113.403 14.76C113.456 14.7333 113.496 14.7067 113.523 14.68C114.243 14.28 114.963 13.9733 115.683 13.76L120.843 2.84C120.843 2.84 120.856 2.82667 120.883 2.8C119.283 3.12 117.656 3.56 116.003 4.12C111.869 5.56 108.829 7.13333 106.882 8.84C105.362 10.1733 104.682 11.5467 104.842 12.96C104.949 13.76 105.269 14.44 105.802 15C106.336 15.5333 106.989 15.7733 107.763 15.72C108.003 15.6933 108.176 15.7867 108.283 16C108.389 16.2133 108.389 16.44 108.283 16.68C108.176 16.8933 108.003 17.0133 107.763 17.04C106.962 17.0933 106.242 16.92 105.602 16.52C104.962 16.12 104.496 15.6 104.202 14.96C103.882 14.32 103.682 13.6133 103.602 12.84C103.496 12.0667 103.602 11.3467 103.922 10.68C104.162 10.0933 104.482 9.53333 104.882 9C105.282 8.44 105.789 7.93333 106.402 7.48C107.016 7.02667 107.576 6.62666 108.083 6.28C108.589 5.93333 109.243 5.57333 110.043 5.2C110.869 4.82667 111.483 4.54667 111.883 4.36C112.309 4.17333 112.936 3.92 113.763 3.6C118.029 1.84 122.216 0.946666 126.323 0.919998C127.309 0.919998 128.189 0.959998 128.963 1.04C129.736 1.09333 130.589 1.22666 131.523 1.44C132.483 1.65333 133.309 2.02667 134.003 2.56C134.723 3.06666 135.269 3.70667 135.643 4.48C135.936 5.04 136.096 5.58667 136.123 6.12C136.176 6.62667 136.096 7.12 135.883 7.6C135.669 8.05333 135.429 8.48 135.163 8.88C134.896 9.25333 134.509 9.65333 134.003 10.08C133.523 10.48 133.109 10.8133 132.763 11.08C132.443 11.32 132.016 11.6133 131.483 11.96C128.789 13.7733 125.909 15.2667 122.843 16.44C123.056 16.8667 123.283 17.5333 123.523 18.44C123.789 19.3467 124.016 20 124.203 20.4C125.003 22.16 126.229 22.7467 127.883 22.16C128.309 22 129.176 21.5867 130.483 20.92C131.283 20.4933 132.189 19.8667 133.203 19.04ZM121.963 3.48C121.589 4.28 120.856 5.84 119.763 8.16C118.696 10.4533 117.856 12.2267 117.243 13.48C117.616 13.4533 117.963 13.4533 118.283 13.48C119.856 13.6133 121.123 14.2267 122.083 15.32C123.869 14.6533 125.523 13.9067 127.043 13.08C128.509 12.3067 129.923 11.4533 131.283 10.52C131.336 10.4933 131.523 10.3733 131.843 10.16C132.163 9.92 132.376 9.76 132.483 9.68C132.589 9.6 132.776 9.45333 133.043 9.24C133.336 9.02667 133.549 8.85333 133.683 8.72C133.816 8.56 133.976 8.37333 134.163 8.16C134.349 7.94667 134.483 7.73333 134.563 7.52C134.669 7.30666 134.749 7.08 134.803 6.84C134.989 5.82666 134.683 4.94666 133.883 4.2C133.109 3.45333 132.176 2.94667 131.082 2.68C129.803 2.36 128.123 2.21333 126.043 2.24C124.656 2.26667 123.216 2.4 121.723 2.64C122.043 2.88 122.123 3.16 121.963 3.48ZM113.723 17.48C113.749 17.48 113.789 17.48 113.843 17.48C113.896 17.4533 113.923 17.44 113.923 17.44L114.883 15.48C114.483 15.6667 114.096 15.88 113.723 16.12C112.949 16.6267 112.562 16.9333 112.562 17.04C112.562 17.4133 112.949 17.56 113.723 17.48ZM118.003 16.6C118.829 16.3867 119.736 16.12 120.723 15.8C119.629 14.84 118.256 14.52 116.603 14.84C116.363 15.3733 115.989 16.1467 115.483 17.16C116.309 17 117.149 16.8133 118.003 16.6ZM147.508 18.92C147.694 18.7067 147.908 18.64 148.148 18.72C148.388 18.8 148.534 18.96 148.588 19.2C148.641 19.4133 148.588 19.6267 148.428 19.84C146.454 21.9467 144.588 23.08 142.828 23.24C142.054 23.2933 141.508 23.0933 141.188 22.64C140.868 22.1867 140.801 21.5733 140.988 20.8C140.988 20.6933 141.028 20.52 141.108 20.28C141.214 20.0133 141.294 19.7733 141.348 19.56C141.428 19.3467 141.481 19.12 141.508 18.88C141.534 18.64 141.508 18.44 141.428 18.28C141.348 18.0933 141.201 17.96 140.988 17.88C140.908 17.8267 140.814 17.8 140.708 17.8C140.601 17.8 140.481 17.8133 140.348 17.84C140.241 17.8667 140.134 17.8933 140.028 17.92C139.921 17.9467 139.788 18 139.628 18.08C139.494 18.1333 139.388 18.1867 139.308 18.24C139.228 18.2667 139.108 18.3333 138.948 18.44C138.814 18.52 138.708 18.5867 138.628 18.64C138.574 18.6667 138.481 18.7333 138.348 18.84C138.214 18.92 138.134 18.9733 138.108 19C135.814 20.52 134.054 22.3067 132.827 24.36C132.774 24.52 132.681 24.7733 132.547 25.12C132.414 25.44 132.321 25.6933 132.267 25.88C132.161 26.12 131.987 26.2667 131.747 26.32C131.481 26.3467 131.267 26.28 131.107 26.12C130.947 25.96 130.907 25.76 130.987 25.52C132.001 22.88 133.508 18.92 135.508 13.64C137.508 8.33333 139.028 4.36 140.068 1.72C140.148 1.48 140.308 1.33333 140.548 1.28C140.814 1.22667 141.028 1.28 141.188 1.44C141.374 1.6 141.414 1.81333 141.308 2.08C141.014 2.85333 138.681 8.98667 134.308 20.48C135.001 19.7867 135.761 19.12 136.588 18.48C137.174 18.0533 137.668 17.7067 138.068 17.44C138.468 17.1733 139.001 16.9333 139.668 16.72C140.334 16.5067 140.934 16.48 141.468 16.64C141.814 16.7733 142.094 16.9733 142.308 17.24C142.521 17.48 142.654 17.72 142.708 17.96C142.788 18.1733 142.801 18.4933 142.748 18.92C142.694 19.32 142.641 19.6133 142.588 19.8C142.534 19.9867 142.454 20.3067 142.348 20.76C142.321 20.7867 142.294 20.8533 142.268 20.96C142.241 21.0667 142.214 21.1467 142.188 21.2C142.188 21.2267 142.174 21.28 142.148 21.36C142.148 21.44 142.148 21.5067 142.148 21.56C142.174 21.6133 142.201 21.6667 142.228 21.72C142.254 21.7733 142.294 21.8133 142.348 21.84C142.401 21.8667 142.468 21.8933 142.548 21.92C142.841 22.0267 143.494 21.8 144.508 21.24C145.654 20.6 146.654 19.8267 147.508 18.92ZM164.645 17.96C164.912 17.9067 165.125 17.9733 165.285 18.16C165.445 18.3467 165.499 18.56 165.445 18.8C165.392 19.0133 165.245 19.1467 165.005 19.2C162.419 19.6533 160.472 19.7067 159.165 19.36C159.032 19.3333 158.899 19.2933 158.765 19.24C158.659 19.9867 158.339 20.6933 157.805 21.36C156.952 22.4 155.765 23.16 154.245 23.64C152.725 24.0933 151.325 24.08 150.045 23.6C148.979 23.1733 148.219 22.4267 147.765 21.36C147.339 20.2667 147.339 19.1867 147.765 18.12C148.245 16.8667 149.072 15.9467 150.245 15.36C151.445 14.7467 152.779 14.4133 154.245 14.36C154.512 14.3333 154.699 14.4267 154.805 14.64C154.912 14.8533 154.912 15.08 154.805 15.32C154.699 15.5333 154.512 15.64 154.245 15.64C151.739 15.7467 150.059 16.5733 149.205 18.12C148.832 18.7067 148.672 19.36 148.725 20.08C148.805 20.7733 149.112 21.36 149.645 21.84C150.152 22.32 150.805 22.5867 151.605 22.64C152.405 22.6933 153.165 22.6 153.885 22.36C154.605 22.12 155.259 21.8 155.845 21.4C156.299 21.1067 156.699 20.6933 157.045 20.16C157.419 19.6267 157.579 19.1467 157.525 18.72C156.592 18.24 156.072 17.76 155.965 17.28C155.912 17.04 155.965 16.8267 156.125 16.64C156.312 16.4533 156.525 16.4 156.765 16.48C157.539 16.6933 158.099 17.08 158.445 17.64C159.032 17.9333 159.605 18.12 160.165 18.2C161.392 18.3333 162.885 18.2533 164.645 17.96ZM181.754 1.88C181.834 1.64 181.994 1.49333 182.234 1.44C182.501 1.38667 182.714 1.44 182.874 1.6C183.034 1.76 183.074 1.97333 182.994 2.24C181.794 6 180.727 8.93333 179.794 11.04C179.501 11.7067 179.194 12.3733 178.874 13.04C176.794 18.48 174.967 23.3333 173.394 27.6C173.314 27.84 173.141 27.9867 172.874 28.04C172.634 28.0933 172.421 28.04 172.234 27.88C172.074 27.72 172.047 27.52 172.154 27.28C172.634 25.9733 173.674 23.16 175.274 18.84C172.341 22.5733 169.101 24.4133 165.554 24.36C164.381 24.3333 163.607 23.96 163.234 23.24C162.861 22.4933 162.834 21.68 163.154 20.8C163.501 19.8933 164.007 19.1067 164.674 18.44C166.061 17.16 167.701 16.4 169.594 16.16C171.487 15.8933 173.247 16.24 174.874 17.2C175.834 15.92 176.714 14.48 177.514 12.88C179.114 8.74667 180.527 5.08 181.754 1.88ZM169.754 21.96C171.087 21.24 172.394 20.16 173.674 18.72C173.701 18.6933 173.727 18.6667 173.754 18.64C173.781 18.5867 173.807 18.5467 173.834 18.52C173.887 18.4667 173.927 18.4267 173.954 18.4C173.981 18.3467 174.007 18.2933 174.034 18.24C172.967 17.6533 171.847 17.36 170.674 17.36C169.501 17.36 168.367 17.6533 167.274 18.24C166.981 18.3733 166.607 18.64 166.154 19.04C165.701 19.4133 165.247 19.8667 164.794 20.4C164.367 20.9067 164.127 21.3867 164.074 21.84C164.021 22.2933 164.247 22.6667 164.754 22.96C165.154 23.1733 165.701 23.2267 166.394 23.12C167.087 22.9867 167.687 22.8267 168.194 22.64C168.727 22.4267 169.247 22.2 169.754 21.96ZM192.797 18.12C192.984 17.9333 193.197 17.88 193.437 17.96C193.677 18.04 193.824 18.1867 193.877 18.4C193.93 18.6133 193.877 18.8267 193.717 19.04C190.704 22.08 186.97 23.5467 182.517 23.44C182.09 23.4133 181.65 23.3733 181.197 23.32C180.77 23.24 180.317 23.12 179.837 22.96C179.357 22.8 178.957 22.5867 178.637 22.32C178.344 22.0533 178.104 21.72 177.917 21.32C177.757 20.92 177.77 20.4533 177.957 19.92C178.304 18.7467 179.13 17.7733 180.437 17C181.77 16.2267 183.17 15.7067 184.637 15.44C185.037 15.36 185.464 15.32 185.917 15.32C186.397 15.32 186.89 15.3733 187.397 15.48C187.904 15.56 188.29 15.7733 188.557 16.12C188.824 16.44 188.89 16.8667 188.757 17.4C188.65 17.88 188.37 18.3333 187.917 18.76C187.49 19.1867 187.037 19.52 186.557 19.76C186.077 20 185.464 20.2267 184.717 20.44C183.997 20.6533 183.424 20.8 182.997 20.88C182.597 20.96 182.09 21.0533 181.477 21.16C181.21 21.2133 180.997 21.1467 180.837 20.96C180.677 20.7467 180.624 20.5333 180.677 20.32C180.73 20.08 180.877 19.9467 181.117 19.92C181.49 19.84 181.984 19.7333 182.597 19.6C183.21 19.44 183.957 19.2267 184.837 18.96C185.717 18.6933 186.41 18.3733 186.917 18C187.45 17.6 187.624 17.2133 187.437 16.84C187.17 16.36 186.064 16.3733 184.117 16.88C182.65 17.28 181.437 17.88 180.477 18.68C180.157 18.92 179.89 19.1867 179.677 19.48C179.49 19.7467 179.357 20.0267 179.277 20.32C179.197 20.6133 179.237 20.8933 179.397 21.16C179.584 21.4 179.89 21.6 180.317 21.76C181.144 22.08 182.41 22.1867 184.117 22.08C187.504 21.8667 190.397 20.5467 192.797 18.12ZM200.744 18.32C201.011 18.24 201.224 18.2933 201.384 18.48C201.544 18.6667 201.597 18.88 201.544 19.12C201.517 19.36 201.371 19.52 201.104 19.6C199.104 20.1333 197.664 20.56 196.784 20.88C197.024 21.1467 197.184 21.32 197.264 21.4C197.691 21.9067 197.877 22.4267 197.824 22.96C197.771 23.4933 197.584 23.9733 197.264 24.4C196.971 24.8267 196.557 25.24 196.024 25.64C195.491 26.0133 194.971 26.3333 194.464 26.6C193.957 26.8667 193.477 27.08 193.024 27.24C191.131 27.88 189.784 27.9067 188.984 27.32C188.131 26.7067 188.237 25.6933 189.304 24.28C190.477 22.7333 192.184 21.4533 194.424 20.44C194.131 20.2 193.917 20.0133 193.784 19.88C192.744 18.84 192.144 17.9867 191.984 17.32C191.851 16.76 191.917 16.2267 192.184 15.72C192.451 15.2133 192.837 14.7867 193.344 14.44C193.877 14.0933 194.411 13.8133 194.944 13.6C195.477 13.36 195.997 13.1733 196.504 13.04C196.771 12.9867 196.984 13.0533 197.144 13.24C197.304 13.4267 197.357 13.64 197.304 13.88C197.251 14.0933 197.104 14.24 196.864 14.32C195.531 14.6133 194.504 15.12 193.784 15.84C193.571 16.0533 193.424 16.2533 193.344 16.44C193.264 16.6267 193.251 16.8267 193.304 17.04C193.357 17.2267 193.437 17.4133 193.544 17.6C193.651 17.76 193.797 17.9467 193.984 18.16C194.304 18.56 194.891 19.1333 195.744 19.88C196.864 19.4533 198.531 18.9333 200.744 18.32ZM196.304 22.32C196.171 22.0267 195.917 21.7067 195.544 21.36C193.437 22.24 191.811 23.3467 190.664 24.68C190.451 24.92 190.291 25.1333 190.184 25.32C190.051 25.48 189.957 25.6667 189.904 25.88C189.824 26.0667 189.864 26.2133 190.024 26.32C190.157 26.4 190.411 26.4267 190.784 26.4C191.317 26.4 192.011 26.24 192.864 25.92C193.184 25.7867 193.491 25.6533 193.784 25.52C194.104 25.3867 194.464 25.2 194.864 24.96C195.291 24.6933 195.611 24.44 195.824 24.2C196.064 23.9333 196.264 23.64 196.424 23.32C196.584 22.9733 196.544 22.64 196.304 22.32Z" fill="#666666"/>
</svg>
