<svg width="31" height="43" viewBox="0 0 31 43" fill="none" xmlns="http://www.w3.org/2000/svg">
<path fill-rule="evenodd" clip-rule="evenodd" d="M14.9472 8.62781C11.4489 8.62781 8.69275 11.5606 8.69275 15.0364C8.69275 18.6209 11.5549 21.4451 14.9472 21.4451C18.4454 21.4451 21.2016 18.5123 21.2016 15.0364C21.2016 11.452 18.3394 8.62781 14.9472 8.62781Z" fill="#003554"/>
<path fill-rule="evenodd" clip-rule="evenodd" d="M14.947 0.0477295C6.67845 0.0477295 0 6.89084 0 15.3633C0 18.8391 2.33216 24.3788 7.10247 31.765C10.4947 37.1961 13.9929 41.6495 14.0989 41.7581L15.053 42.953L16.0071 41.7581C16.0071 41.7581 19.5053 37.1961 23.0035 31.765C27.6678 24.3788 30.106 18.8391 30.106 15.3633C30.106 6.89084 23.4276 0.0477295 15.159 0.0477295H14.947ZM14.947 24.0529C10.0707 24.0529 6.14841 20.034 6.14841 15.0374C6.14841 10.0409 10.0707 6.02188 14.947 6.02188C19.8233 6.02188 23.7456 10.0409 23.7456 15.0374C23.7456 20.034 19.8233 24.0529 14.947 24.0529Z" fill="#003554"/>
</svg>
