<svg width="233" height="50" viewBox="0 0 233 50" fill="none" xmlns="http://www.w3.org/2000/svg">
<path fill-rule="evenodd" clip-rule="evenodd" d="M19.539 2.07433C24.2932 2.07433 28.6282 3.87396 31.9057 6.83225C31.0324 7.15802 30.1679 7.48907 29.3244 7.82892C28.3371 8.22512 28.067 8.50334 27.2147 8.99463C26.7518 9.26228 25.4102 9.2165 24.8333 9.21826C23.9758 9.22002 23.1691 9.15135 22.3186 9.06682C20.6 8.89602 17.8415 8.82734 16.3895 9.87507C15.7459 10.3399 15.3654 10.9087 15.0164 11.6131L14.9428 11.7698C14.685 12.3368 14.9691 13.2947 15.0567 13.9357C15.3128 15.8286 15.3075 17.387 14.3869 19.1127C14.0116 19.7678 13.745 20.2045 13.8327 20.9863C13.9274 21.5269 15.2269 22.7507 15.6319 23.2684C16.2562 24.0661 16.4526 24.8268 16.7736 25.7882C17.1857 27.0314 17.2523 27.7569 17.1716 29.067C17.1523 29.3452 16.7087 29.5953 16.5017 29.7555C16.1791 30.0056 15.8494 30.2486 15.5267 30.5004C14.343 31.4319 13.4048 32.2824 12.2878 33.2755C11.1233 34.3092 10.2886 34.8251 9.28026 36.0806L9.2522 36.1159C4.29466 32.7807 1.02939 27.1036 1.02939 20.6623C1.02939 10.3963 9.31709 2.07433 19.539 2.07433ZM33.0158 7.92048C34.4292 9.42781 35.5954 11.1728 36.4476 13.0887C36.2688 13.1838 36.1092 13.2613 35.9847 13.3106C35.783 13.3933 35.5796 13.4743 35.3762 13.5553C33.8786 14.1435 32.3459 14.6471 30.8588 15.2546C26.4852 17.0419 24.8596 17.7551 21.3962 21.0585C21.1664 21.2786 21.0647 21.5727 21.0963 21.1958C21.1892 20.0618 21.1857 18.8979 21.5733 17.8132C22.3519 15.6367 23.0446 14.7281 24.5492 13.0341C25.5207 11.9934 28.0512 10.4157 29.3244 9.57396C29.9802 9.14078 31.4761 8.55616 32.2635 8.21103C32.4949 8.11066 32.7475 8.01205 33.0123 7.91872L33.0158 7.92048ZM37.6243 16.6809C37.9032 17.9628 38.0505 19.2958 38.0505 20.6623C38.0505 30.9283 29.7628 39.2502 19.539 39.2502C16.6736 39.2502 13.9607 38.597 11.5407 37.4295C12.8033 36.5508 14.0747 35.7954 14.9638 35.489C16.3737 35.003 19.0849 34.1384 20.2212 33.2967C21.6522 32.1732 22.7114 30.363 22.4834 28.493C22.4343 28.1584 22.3729 27.8256 22.3238 27.4893C24.6193 27.4787 26.1906 27.8978 28.288 26.5877C29.5541 25.7301 30.4607 25.1085 30.857 23.5449C30.0434 23.3318 29.249 23.2209 28.423 23.087C30.7115 22.8317 31.9092 22.9761 33.8768 21.5269C34.0452 21.4001 34.1802 21.2821 34.3345 21.1377C35.4586 19.9703 36.5757 18.2323 37.4981 16.8746C37.5437 16.8077 37.5858 16.7443 37.6261 16.6827L37.6243 16.6809ZM8.59809 36.9259C7.51961 38.2589 6.43936 39.6218 5.66776 41.1414C5.40296 41.6627 5.18025 42.0677 4.8418 42.5484C4.03863 43.6084 3.46344 44.1948 2.98645 45.4803C2.66553 46.3413 2.37443 47.2359 1.8308 47.986C1.65719 48.2255 2.22011 48.3135 2.40249 48.2959C3.1057 48.222 3.36874 47.6585 3.74051 47.1637C4.25784 46.4734 4.82777 47.0756 5.42225 45.3852C6.08864 43.1013 5.8554 42.5273 7.68094 40.6008C8.31927 39.9264 9.40652 39.002 10.5937 38.1145C13.2751 39.5038 16.3176 40.2892 19.5426 40.2892C30.338 40.2892 39.0869 31.5023 39.0869 20.664C39.0869 18.8327 38.8361 17.0613 38.3696 15.3796C38.5467 14.994 38.6993 14.5819 38.9238 13.9956C39.1798 13.3264 39.385 12.9936 39.9111 12.5006C40.4863 11.9917 40.5476 11.9617 41.0053 11.2855C42.3434 9.25524 43.6796 6.66145 44.2952 4.30185C44.4004 3.88628 44.4881 3.47424 44.574 3.05514C44.6547 2.65014 44.9861 0.149676 44.9142 0C44.8476 0.0105653 43.222 1.52493 42.9607 1.7468C42.047 2.52336 41.1491 3.19602 40.0847 3.75422C39.008 4.27192 38.3416 4.55894 37.2087 4.94986C35.8286 5.42706 34.4099 5.92011 33.0035 6.43253C29.4997 3.0886 24.7614 1.03716 19.5443 1.03716C8.75066 1.03716 0 9.82401 0 20.6623C0 27.4294 3.41258 33.397 8.60335 36.9259H8.59809ZM18.913 14.5115C18.6061 14.5397 18.6096 14.5027 18.3466 14.346C19.0358 13.3863 19.4847 12.9866 20.6754 12.659C21.0367 12.5604 21.2979 12.5252 21.6697 12.5199C21.1682 13.2771 20.6789 13.8952 19.8214 14.2843C19.5127 14.4235 19.2462 14.4728 18.9148 14.5115H18.913ZM37.349 12.5657C37.7646 12.3051 38.1522 12.0322 38.3644 11.8367C39.0115 11.2345 39.7199 10.6569 40.2127 9.91557C41.435 8.08072 42.6643 6.15959 43.1746 3.98665C43.3394 3.28582 43.4289 3.40556 42.7081 3.86691C41.1334 4.87414 39.6743 5.55737 37.9453 6.25292C37.0842 6.59277 36.3898 6.86395 35.5007 7.14217C35.0693 7.27776 34.5853 7.41863 34.0978 7.56831C35.42 9.04921 36.5213 10.7309 37.349 12.5657ZM35.9145 16.5119C36.2495 16.327 36.004 16.5788 35.8479 16.8323C34.8203 18.521 34.4467 19.0387 32.8299 20.2485C31.9759 20.8877 31.3235 20.9634 30.3064 21.2046C28.2476 21.6871 26.0468 22.0921 24.0249 22.6539C23.234 22.874 22.6255 23.2526 21.9328 23.6734C23.0691 21.7188 23.0498 21.6466 24.9227 20.1904C27.4164 18.2516 28.9403 18.3696 31.9057 17.7691L32.1302 17.7234C33.3998 17.4627 34.7694 17.1194 35.9163 16.5101L35.9145 16.5119ZM21.4505 26.1087C21.3593 26.0295 21.4014 25.9995 21.5066 25.8587C22.1169 25.0557 23.0113 24.5609 23.9477 24.2246C25.1402 23.7967 27.8004 23.5589 29.0175 23.9235C29.384 24.0326 29.1315 24.1823 28.8789 24.4517C27.5777 25.8393 26.5045 26.0982 24.6755 26.2566C23.7355 26.3376 22.4518 26.2267 21.5014 26.1263L21.4505 26.1087Z" fill="white"/>
<path d="M66.3293 25.7706C64.9176 25.7706 63.6497 25.5399 62.4958 25.0768C61.3437 24.6137 60.3634 23.9481 59.5287 23.05C58.6922 22.1537 58.0591 21.0532 57.626 19.7519C57.1648 18.4488 56.9351 16.975 56.9351 15.2951C56.9351 13.6169 57.1946 12.1114 57.7137 10.8101C58.2047 9.50702 58.8956 8.4364 59.7602 7.5401C60.6247 6.64381 61.6331 5.97819 62.787 5.51508C63.9391 5.05197 65.1789 4.82129 66.4766 4.82129C67.3131 4.82129 68.0619 4.8794 68.7248 4.99562C69.3876 5.11184 69.9646 5.25623 70.4539 5.40062C70.9431 5.54502 71.3184 5.71934 71.6358 5.86374C71.9532 6.00813 72.1549 6.12435 72.2689 6.21063L71.4622 8.5262C71.2886 8.40998 71.0291 8.29553 70.7134 8.14937C70.396 8.00498 70.0225 7.88876 69.6191 7.74437C69.186 7.59997 68.7546 7.48376 68.2653 7.39747C67.7761 7.30943 67.257 7.28125 66.766 7.28125C65.6997 7.28125 64.7493 7.45558 63.9128 7.83065C63.0763 8.20572 62.3573 8.72694 61.7505 9.4225C61.1455 10.1163 60.7124 10.9562 60.3967 11.9406C60.0793 12.9531 59.9057 14.0536 59.9057 15.2986C59.9057 16.4854 60.0495 17.5842 60.3389 18.5686C60.5984 19.5529 61.0316 20.3911 61.5787 21.0866C62.1258 21.8104 62.8466 22.3598 63.6831 22.7366C64.5195 23.1134 65.47 23.3159 66.5941 23.3159C67.8918 23.3159 68.958 23.1715 69.7927 22.9109C70.6292 22.6503 71.2623 22.3897 71.6954 22.1872L72.4162 24.501C72.2724 24.589 72.0409 24.7035 71.6954 24.8479C71.35 24.9923 70.9168 25.1367 70.3977 25.2828C69.8787 25.4272 69.2737 25.5434 68.581 25.6297C67.89 25.7178 67.1412 25.7741 66.3328 25.7741L66.3293 25.7706Z" fill="white"/>
<path d="M75.2886 25.3358V3.34226L77.9681 2.87915V10.576C78.4574 10.3735 79.0063 10.2291 79.5815 10.1129C80.1286 10.0266 80.7056 9.96849 81.2527 9.96849C82.4347 9.96849 83.443 10.1428 84.2216 10.4615C85.0002 10.8084 85.6333 11.2716 86.1243 11.8791C86.5855 12.4866 86.9029 13.2385 87.1046 14.0784C87.3063 14.9184 87.3922 15.8728 87.3922 16.8853V25.3358H84.7126V17.4646C84.7126 16.5384 84.6548 15.7565 84.539 15.0909C84.3952 14.4253 84.1936 13.9041 83.9042 13.4991C83.6166 13.0941 83.2413 12.8035 82.7521 12.601C82.2628 12.4285 81.6858 12.3404 80.9651 12.3404C80.6775 12.3404 80.3882 12.3686 80.0725 12.3985C79.7551 12.4267 79.4675 12.4848 79.208 12.5147C78.9186 12.5729 78.6608 12.631 78.4592 12.6891C78.2294 12.7472 78.0558 12.8053 77.9699 12.8335V25.334H75.2903L75.2886 25.3358Z" fill="white"/>
<path d="M97.1282 9.97021C97.358 9.97021 97.6175 9.97022 97.9349 10.0002C98.2225 10.0283 98.5119 10.0864 98.7995 10.1164C99.087 10.1745 99.3466 10.2326 99.6061 10.2608C99.8359 10.3189 100.009 10.377 100.125 10.4052L99.664 12.7489C99.4623 12.6626 99.1169 12.5746 98.6258 12.4601C98.1366 12.3721 97.5018 12.3157 96.7231 12.3157C96.2339 12.3157 95.7429 12.3738 95.2536 12.4601C94.7626 12.5763 94.4171 12.6626 94.2733 12.6908V25.3375H91.5938V10.9264C92.2286 10.6957 93.0054 10.4633 93.9577 10.2608C94.9081 10.0583 95.9463 9.97021 97.1265 9.97021H97.1282Z" fill="white"/>
<path d="M105.251 25.3358H102.571V10.2872H105.251V25.3358ZM103.897 7.56843C103.406 7.56843 103.004 7.39586 102.687 7.07714C102.342 6.75842 102.168 6.35341 102.168 5.80401C102.168 5.25462 102.342 4.81968 102.687 4.50096C103.004 4.18223 103.408 4.03784 103.897 4.03784C104.386 4.03784 104.79 4.18223 105.135 4.50096C105.453 4.81968 105.626 5.25286 105.626 5.80401C105.626 6.35341 105.453 6.76018 105.135 7.07714C104.79 7.39586 104.386 7.56843 103.897 7.56843Z" fill="white"/>
<path d="M113.202 23.3971C114.296 23.3971 115.105 23.2527 115.652 22.9622C116.171 22.6734 116.431 22.2103 116.431 21.5728C116.431 20.9072 116.171 20.386 115.652 20.0109C115.133 19.6341 114.268 19.2009 113.086 18.7079C112.511 18.4754 111.962 18.2447 111.443 17.9841C110.896 17.7535 110.435 17.4629 110.06 17.1442C109.686 16.8255 109.369 16.4205 109.137 15.9574C108.907 15.4942 108.792 14.9149 108.792 14.2493C108.792 12.9181 109.283 11.8474 110.261 11.0656C111.241 10.2838 112.567 9.90869 114.267 9.90869C114.7 9.90869 115.103 9.93687 115.534 9.9668C115.968 10.0249 116.341 10.083 116.716 10.1411C117.092 10.2292 117.407 10.2855 117.697 10.3718C117.956 10.4599 118.188 10.5162 118.331 10.5743L117.842 12.8899C117.555 12.7455 117.093 12.5712 116.488 12.3986C115.883 12.2542 115.135 12.1662 114.27 12.1662C113.521 12.1662 112.858 12.3105 112.311 12.6011C111.764 12.9198 111.475 13.3829 111.475 14.0186C111.475 14.3373 111.533 14.6261 111.676 14.8867C111.792 15.1473 111.994 15.3498 112.252 15.5523C112.511 15.7548 112.829 15.9574 113.204 16.1317C113.577 16.306 114.04 16.4786 114.587 16.6811C115.308 16.9417 115.941 17.2023 116.49 17.4629C117.037 17.7235 117.528 18.0405 117.932 18.3891C118.305 18.736 118.623 19.141 118.824 19.6341C119.026 20.1254 119.142 20.7329 119.142 21.4566C119.142 22.846 118.623 23.8866 117.614 24.6104C116.576 25.3341 115.107 25.681 113.206 25.681C111.88 25.681 110.842 25.5648 110.093 25.3623C109.344 25.1316 108.825 24.9573 108.565 24.841L109.056 22.5255C109.374 22.6417 109.863 22.8143 110.526 23.0467C111.189 23.2791 112.083 23.3936 113.207 23.3936L113.202 23.3971Z" fill="white"/>
<path d="M139.019 16.9434C139.336 17.3203 139.71 17.8415 140.201 18.449C140.662 19.0864 141.151 19.7802 141.642 20.5321C142.132 21.314 142.651 22.094 143.142 22.934C143.631 23.7739 144.034 24.554 144.38 25.3358H141.325C140.95 24.6121 140.518 23.8602 140.085 23.1083C139.624 22.3564 139.163 21.6327 138.702 20.9371C138.24 20.2715 137.779 19.6341 137.348 19.0266C136.887 18.4191 136.483 17.8978 136.108 17.4647C135.848 17.4928 135.619 17.4928 135.359 17.4928C135.1 17.4928 134.812 17.4928 134.553 17.4928H132.045V25.3358H129.25V5.57161C130.028 5.36911 130.921 5.25289 131.901 5.16661C132.851 5.1085 133.746 5.08032 134.553 5.08032C137.348 5.08032 139.51 5.60155 140.98 6.67217C142.449 7.74279 143.17 9.3047 143.17 11.4178C143.17 12.749 142.824 13.8777 142.132 14.8321C141.411 15.7865 140.375 16.4821 139.019 16.9434ZM134.782 7.53853C133.6 7.53853 132.678 7.5667 132.045 7.62657V15.179H134.033C134.984 15.179 135.848 15.1209 136.627 15.0346C137.406 14.9466 138.039 14.7441 138.588 14.4852C139.107 14.2246 139.51 13.8196 139.798 13.3283C140.085 12.837 140.231 12.1996 140.231 11.3896C140.231 10.6377 140.087 10.0003 139.798 9.50896C139.51 9.01767 139.135 8.61267 138.646 8.32212C138.156 8.03157 137.579 7.83083 136.916 7.71461C136.254 7.5984 135.533 7.54029 134.784 7.54029L134.782 7.53853Z" fill="white"/>
<path d="M147.056 25.3358V3.34226L149.735 2.87915V10.576C150.224 10.3735 150.773 10.2291 151.349 10.1129C151.896 10.0266 152.473 9.96849 153.02 9.96849C154.202 9.96849 155.21 10.1428 155.989 10.4615C156.767 10.8084 157.4 11.2716 157.891 11.8791C158.353 12.4866 158.67 13.2385 158.872 14.0784C159.073 14.9184 159.159 15.8728 159.159 16.8853V25.3358H156.48V17.4646C156.48 16.5384 156.422 15.7565 156.306 15.0909C156.162 14.4253 155.961 13.9041 155.671 13.4991C155.384 13.0941 155.008 12.8035 154.519 12.601C154.03 12.4285 153.453 12.3404 152.732 12.3404C152.445 12.3404 152.155 12.3686 151.84 12.3985C151.522 12.4267 151.235 12.4848 150.975 12.5147C150.686 12.5729 150.428 12.631 150.226 12.6891C149.997 12.7472 149.823 12.8053 149.737 12.8335V25.334H147.057L147.056 25.3358Z" fill="white"/>
<path d="M176.591 17.8115C176.591 18.9983 176.417 20.0971 176.072 21.0533C175.726 22.0094 175.235 22.8476 174.632 23.5432C173.997 24.2369 173.249 24.7582 172.384 25.135C171.519 25.5118 170.569 25.7143 169.561 25.7143C168.552 25.7143 167.602 25.5118 166.737 25.135C165.873 24.7582 165.124 24.2387 164.519 23.5432C163.884 22.8494 163.395 22.0094 163.049 21.0533C162.704 20.0989 162.53 18.9983 162.53 17.8115C162.53 16.6246 162.704 15.554 163.049 14.5714C163.395 13.6153 163.886 12.7771 164.519 12.0815C165.124 11.3877 165.873 10.8366 166.737 10.4615C167.602 10.0847 168.554 9.91211 169.561 9.91211C170.569 9.91211 171.519 10.0864 172.384 10.4615C173.249 10.8366 173.997 11.3877 174.632 12.0815C175.237 12.7753 175.726 13.6153 176.072 14.5714C176.417 15.5558 176.591 16.6264 176.591 17.8115ZM173.796 17.8115C173.796 16.1052 173.42 14.7722 172.672 13.7597C171.893 12.7753 170.855 12.284 169.559 12.284C168.261 12.284 167.225 12.7753 166.476 13.7597C165.697 14.7722 165.324 16.1034 165.324 17.8115C165.324 19.5195 165.697 20.8508 166.476 21.8333C167.225 22.8458 168.263 23.3389 169.559 23.3389C170.857 23.3389 171.893 22.8476 172.672 21.8333C173.42 20.849 173.796 19.5178 173.796 17.8115Z" fill="white"/>
<path d="M189.901 13.4709C189.584 13.2103 189.094 12.9497 188.489 12.6891C187.884 12.4285 187.192 12.3122 186.473 12.3122C185.694 12.3122 185.061 12.4566 184.512 12.7172C183.965 13.006 183.504 13.3829 183.158 13.8742C182.813 14.3672 182.553 14.9729 182.409 15.6386C182.266 16.3042 182.18 17.0279 182.18 17.8097C182.18 19.5759 182.613 20.9071 183.477 21.8615C184.342 22.816 185.494 23.309 186.936 23.309C187.656 23.309 188.289 23.2808 188.78 23.1928C189.27 23.1347 189.645 23.0766 189.904 22.9903V13.4691L189.901 13.4709ZM189.901 3.34226L192.582 2.87915V24.9008C191.977 25.0752 191.171 25.2477 190.218 25.4221C189.266 25.5964 188.144 25.6827 186.904 25.6827C185.752 25.6827 184.714 25.5084 183.791 25.1333C182.869 24.7565 182.09 24.237 181.427 23.5714C180.764 22.9058 180.275 22.0658 179.928 21.0815C179.554 20.1271 179.381 19.0265 179.381 17.8115C179.381 16.6546 179.525 15.584 179.842 14.6296C180.13 13.6734 180.563 12.8352 181.14 12.1397C181.717 11.4459 182.437 10.8965 183.272 10.5197C184.109 10.1428 185.059 9.94032 186.125 9.94032C186.99 9.94032 187.769 10.0565 188.431 10.2872C189.094 10.5179 189.584 10.7503 189.901 10.9528V3.34226Z" fill="white"/>
<path d="M196.209 17.8414C196.209 16.5102 196.411 15.3515 196.784 14.339C197.159 13.3547 197.679 12.5446 198.312 11.879C198.946 11.2134 199.667 10.7221 200.502 10.4034C201.337 10.0847 202.173 9.91211 203.038 9.91211C205.056 9.91211 206.612 10.5496 207.678 11.7927C208.744 13.0659 209.291 15.0046 209.291 17.5808C209.291 17.697 209.291 17.8414 209.291 18.0157C209.291 18.2182 209.291 18.3926 209.263 18.537H199.004C199.12 20.0989 199.579 21.2857 200.358 22.0957C201.137 22.9057 202.375 23.3107 204.048 23.3107C204.998 23.3107 205.777 23.2227 206.44 23.0501C207.075 22.9057 207.564 22.7314 207.881 22.587L208.255 24.8445C207.937 25.0188 207.362 25.1914 206.555 25.3939C205.719 25.5964 204.797 25.6844 203.76 25.6844C202.462 25.6844 201.338 25.4819 200.388 25.0769C199.437 24.7001 198.631 24.1507 198.024 23.4569C197.419 22.7631 196.958 21.9231 196.67 20.9687C196.353 20.0143 196.209 18.9719 196.209 17.8432V17.8414ZM206.498 16.3658C206.526 15.1508 206.21 14.1382 205.605 13.3564C204.97 12.5746 204.106 12.1995 203.011 12.1995C202.406 12.1995 201.859 12.3157 201.398 12.5464C200.907 12.807 200.505 13.1257 200.188 13.5026C199.871 13.8776 199.611 14.3407 199.439 14.8338C199.238 15.3251 199.122 15.8463 199.064 16.3675H206.499L206.498 16.3658Z" fill="white"/>
<path d="M216.493 23.3971C217.587 23.3971 218.396 23.2527 218.943 22.9622C219.462 22.6734 219.722 22.2103 219.722 21.5728C219.722 20.9072 219.462 20.386 218.943 20.0109C218.424 19.6341 217.559 19.2009 216.377 18.7079C215.802 18.4754 215.253 18.2447 214.734 17.9841C214.187 17.7535 213.726 17.4629 213.351 17.1442C212.977 16.8255 212.66 16.4205 212.428 15.9574C212.198 15.4942 212.083 14.9149 212.083 14.2493C212.083 12.9181 212.574 11.8474 213.552 11.0656C214.533 10.2838 215.858 9.90869 217.558 9.90869C217.991 9.90869 218.394 9.93687 218.825 9.9668C219.259 10.0249 219.632 10.083 220.007 10.1411C220.383 10.2292 220.698 10.2855 220.988 10.3718C221.247 10.4599 221.479 10.5162 221.622 10.5743L221.133 12.8899C220.846 12.7455 220.384 12.5712 219.779 12.3986C219.174 12.2542 218.426 12.1662 217.561 12.1662C216.812 12.1662 216.149 12.3105 215.602 12.6011C215.055 12.9198 214.766 13.3829 214.766 14.0186C214.766 14.3373 214.824 14.6261 214.967 14.8867C215.083 15.1473 215.285 15.3498 215.543 15.5523C215.802 15.7548 216.12 15.9574 216.495 16.1317C216.868 16.306 217.331 16.4786 217.878 16.6811C218.599 16.9417 219.232 17.2023 219.781 17.4629C220.328 17.7235 220.819 18.0405 221.223 18.3891C221.596 18.736 221.914 19.141 222.115 19.6341C222.317 20.1254 222.433 20.7329 222.433 21.4566C222.433 22.846 221.914 23.8866 220.905 24.6104C219.867 25.3341 218.398 25.681 216.497 25.681C215.171 25.681 214.133 25.5648 213.384 25.3623C212.635 25.1316 212.116 24.9573 211.856 24.841L212.347 22.5255C212.665 22.6417 213.154 22.8143 213.817 23.0467C214.48 23.2791 215.374 23.3936 216.498 23.3936L216.493 23.3971Z" fill="white"/>
<path d="M230.328 30.6519H35.4438V31.6785H230.328V30.6519Z" fill="white"/>
<path d="M63.9826 38.7008V38.2588H67.1023V38.7008L66.2044 38.7836C66.0238 38.7994 65.9256 38.8487 65.894 38.9139C65.8607 38.9967 65.8449 39.2097 65.8449 39.5866V49.4106H65.0435L59.0987 39.34V48.0811C59.0987 48.4579 59.1145 48.671 59.1478 48.7379C59.1811 48.8207 59.2776 48.8682 59.4582 48.8858L60.3561 48.9844V49.4106H57.2363V48.9844L58.1342 48.8858C58.3148 48.87 58.413 48.8207 58.4446 48.7379C58.4779 48.6727 58.4937 48.4579 58.4937 48.0811V39.5848C58.4937 39.208 58.4779 38.9949 58.4446 38.9121C58.4113 38.847 58.3148 38.7977 58.1342 38.7818L57.2363 38.6991V38.2571H60.0614L65.2399 47.0492V39.5866C65.2399 39.2097 65.2242 38.9967 65.1908 38.9139C65.1575 38.8487 65.0593 38.7994 64.8804 38.7836L63.9826 38.7008Z" fill="white"/>
<path d="M75.374 48.9844V49.4105H72.27V48.9844L73.1521 48.8858C73.2661 48.8699 73.3643 48.8523 73.4134 48.8206C73.4625 48.8048 73.5274 48.7378 73.5765 48.6234C73.6256 48.5248 73.6747 48.3434 73.7571 48.0828L76.9101 38.2588H77.9395L81.1241 48.0828C81.2066 48.3452 81.2715 48.5248 81.3206 48.6234C81.3697 48.7378 81.4188 48.8048 81.4679 48.8206C81.517 48.8541 81.5994 48.8699 81.7134 48.8858L82.6112 48.9844V49.4105H78.6427V48.9844L79.5406 48.8858C79.7212 48.8699 79.8194 48.8206 79.8352 48.7378C79.851 48.6727 79.7861 48.4579 79.6721 48.081L79.0022 45.9821H75.0162L74.3463 48.081C74.2323 48.4579 74.1832 48.6709 74.199 48.7378C74.2148 48.8206 74.2972 48.8682 74.4779 48.8858L75.3757 48.9844H75.374ZM75.1776 45.4591H78.8356L77.0066 39.7503L75.1776 45.4591Z" fill="white"/>
<path d="M87.3394 38.2588H96.0286V40.9318H95.6043L95.1308 39.2097C95.0975 39.0776 95.0659 38.9808 95.0326 38.9138C94.9835 38.8645 94.9186 38.8152 94.8046 38.7994C94.6906 38.7835 94.51 38.7835 94.2487 38.7835H92.4021V48.0828C92.4021 48.4596 92.4196 48.6903 92.4512 48.7555C92.4845 48.8206 92.581 48.8699 92.7616 48.8858L93.6595 48.9844V49.4105H89.7226V48.9844L90.6204 48.8858C90.801 48.8699 90.8992 48.8206 90.9308 48.7555C90.9641 48.6903 90.9799 48.4596 90.9799 48.0828V38.7835H89.1175C88.872 38.7835 88.6932 38.7835 88.5792 38.7994C88.4652 38.8152 88.3828 38.8645 88.3512 38.9138C88.3021 38.979 88.2688 39.0776 88.2372 39.2097L87.7637 40.9318H87.3394V38.2588Z" fill="white"/>
<path d="M108.206 38.7008V38.2588H111.326V38.7008L110.426 38.7835C110.247 38.7994 110.149 38.8487 110.116 38.9138C110.082 38.979 110.067 39.2097 110.067 39.5865V45.6228C110.067 46.8695 109.79 47.8363 109.218 48.5265C108.646 49.2309 107.764 49.576 106.587 49.576C105.297 49.576 104.316 49.1992 103.647 48.4438C102.961 47.6901 102.617 46.6565 102.617 45.327V39.5865C102.617 39.2097 102.601 38.9808 102.568 38.9138C102.535 38.8487 102.438 38.7994 102.258 38.7835L101.36 38.7008V38.2588H105.297V38.7008L104.399 38.7835C104.22 38.7994 104.122 38.8487 104.089 38.9138C104.055 38.979 104.039 39.2097 104.039 39.5865V45.5735C104.039 46.7375 104.267 47.6074 104.709 48.1814C105.149 48.7555 105.819 49.0337 106.719 49.0337C107.634 49.0337 108.32 48.7378 108.778 48.1638C109.235 47.5897 109.463 46.7375 109.463 45.6369V39.5847C109.463 39.2079 109.448 38.979 109.414 38.9121C109.381 38.8469 109.285 38.7976 109.104 38.7818L108.204 38.699L108.206 38.7008Z" fill="white"/>
<path d="M117.23 38.7008V38.2588H121.77C122.831 38.2588 123.664 38.5053 124.236 39.0142C124.808 39.5231 125.085 40.2116 125.085 41.048V41.5569C125.085 42.2296 124.904 42.7878 124.546 43.2456C124.171 43.7211 123.649 44.0327 122.979 44.2124L125.069 48.0828C125.216 48.3452 125.315 48.5248 125.379 48.6234C125.444 48.7378 125.511 48.8048 125.576 48.8206C125.625 48.8541 125.706 48.8699 125.821 48.8858L126.556 48.9844V49.4105H124.091L121.509 44.3585H119.908V48.081C119.908 48.4579 119.924 48.6885 119.957 48.7537C119.991 48.8188 120.087 48.8682 120.268 48.884L121.165 48.9826V49.4087H117.229V48.9826L118.126 48.884C118.307 48.8682 118.405 48.8188 118.437 48.7537C118.47 48.6885 118.486 48.4579 118.486 48.081V39.5847C118.486 39.2079 118.47 38.979 118.437 38.9121C118.403 38.8469 118.307 38.7976 118.126 38.7818L117.229 38.699L117.23 38.7008ZM121.77 38.7835H119.908V43.8355H121.77C122.342 43.8355 122.782 43.6542 123.11 43.2773C123.421 42.9163 123.584 42.3581 123.584 41.6203V40.9811C123.584 40.2433 123.421 39.6851 123.11 39.3259C122.784 38.9649 122.342 38.7853 121.77 38.7853V38.7835Z" fill="white"/>
<path d="M140.89 43.2121V44.443C140.89 46.0348 140.531 47.2974 139.796 48.199C139.061 49.1181 138.016 49.576 136.66 49.576C135.289 49.576 134.242 49.1164 133.525 48.199C132.79 47.2974 132.431 46.0348 132.431 44.443V43.2121C132.431 41.622 132.79 40.3753 133.525 39.4561C134.244 38.5546 135.289 38.095 136.66 38.095C138.016 38.095 139.061 38.5546 139.796 39.4561C140.531 40.3753 140.89 41.6203 140.89 43.2121ZM139.338 42.3915C139.338 41.0304 139.11 40.046 138.668 39.472C138.211 38.8979 137.541 38.6197 136.659 38.6197C135.777 38.6197 135.107 38.8997 134.667 39.472C134.209 40.046 133.981 41.0304 133.981 42.3915V45.2618C133.981 46.623 134.209 47.6073 134.667 48.1814C135.107 48.7554 135.777 49.0512 136.659 49.0512C137.541 49.0512 138.211 48.7554 138.668 48.1814C139.109 47.6073 139.338 46.623 139.338 45.2618V42.3915Z" fill="white"/>
<path d="M147.447 38.7008V38.2588H152.086C153.164 38.2588 153.98 38.5212 154.551 39.0618C155.123 39.6023 155.4 40.3243 155.4 41.2277V41.7031C155.4 42.6047 155.121 43.3266 154.551 43.8672C153.98 44.4078 153.162 44.6878 152.086 44.6878H150.125V48.0828C150.125 48.4596 150.141 48.6903 150.174 48.7555C150.207 48.8382 150.304 48.8699 150.485 48.8858L151.71 48.9844V49.4105H147.447V48.9844L148.345 48.8858C148.526 48.8699 148.624 48.8206 148.656 48.7555C148.689 48.6903 148.705 48.4596 148.705 48.0828V39.5865C148.705 39.2097 148.689 38.9808 148.656 38.9138C148.622 38.8487 148.526 38.7994 148.345 38.7835L147.447 38.7008ZM152.086 38.7835H150.125V44.1631H152.086C153.294 44.1631 153.899 43.4252 153.899 41.932V40.997C153.899 39.5196 153.296 38.7835 152.086 38.7835Z" fill="white"/>
<path d="M163.675 48.9844V49.4105H160.571V48.9844L161.453 48.8858C161.567 48.8699 161.666 48.8523 161.715 48.8206C161.764 48.8048 161.829 48.7378 161.878 48.6234C161.927 48.5248 161.976 48.3434 162.058 48.0828L165.211 38.2588H166.241L169.425 48.0828C169.508 48.3452 169.573 48.5248 169.622 48.6234C169.671 48.7378 169.72 48.8048 169.769 48.8206C169.818 48.8541 169.901 48.8699 170.015 48.8858L170.913 48.9844V49.4105H166.944V48.9844L167.842 48.8858C168.023 48.8699 168.121 48.8206 168.137 48.7378C168.152 48.6727 168.087 48.4579 167.973 48.081L167.304 45.9821H163.317L162.648 48.081C162.534 48.4579 162.485 48.6709 162.5 48.7378C162.516 48.8206 162.599 48.8682 162.779 48.8858L163.677 48.9844H163.675ZM163.479 45.4591H167.137L165.308 39.7503L163.479 45.4591Z" fill="white"/>
<path d="M175.639 38.2588H184.328V40.9318H183.904L183.43 39.2097C183.397 39.0776 183.365 38.9808 183.332 38.9138C183.283 38.8645 183.218 38.8152 183.104 38.7994C182.99 38.7835 182.809 38.7835 182.548 38.7835H180.701V48.0828C180.701 48.4596 180.719 48.6903 180.751 48.7555C180.784 48.8206 180.88 48.8699 181.061 48.8858L181.959 48.9844V49.4105H178.022V48.9844L178.92 48.8858C179.1 48.8699 179.199 48.8206 179.23 48.7555C179.263 48.6903 179.279 48.4596 179.279 48.0828V38.7835H177.417C177.171 38.7835 176.992 38.7835 176.878 38.7994C176.764 38.8152 176.682 38.8645 176.651 38.9138C176.601 38.979 176.568 39.0776 176.537 39.2097L176.063 40.9318H175.639V38.2588Z" fill="white"/>
<path d="M200.197 48.9844V49.4105H196.26V48.9844L197.158 48.8858C197.338 48.8699 197.437 48.8206 197.468 48.7555C197.502 48.6903 197.517 48.4596 197.517 48.0828V44.0486H192.584V48.0828C192.584 48.4596 192.6 48.6903 192.633 48.7555C192.667 48.8206 192.763 48.8699 192.944 48.8858L193.842 48.9844V49.4105H189.905V48.9844L190.803 48.8858C190.983 48.8699 191.081 48.8206 191.113 48.7555C191.146 48.6903 191.162 48.4596 191.162 48.0828V39.5865C191.162 39.2097 191.146 38.9808 191.113 38.9138C191.08 38.8487 190.983 38.7994 190.803 38.7835L189.905 38.7008V38.2588H193.842V38.7008L192.944 38.7835C192.765 38.7994 192.667 38.8487 192.633 38.9138C192.6 38.979 192.584 39.2097 192.584 39.5865V43.5221H197.517V39.5865C197.517 39.2097 197.5 38.9808 197.468 38.9138C197.435 38.8487 197.338 38.7994 197.158 38.7835L196.26 38.7008V38.2588H200.197V38.7008L199.299 38.7835C199.118 38.7994 199.02 38.8487 198.989 38.9138C198.955 38.979 198.94 39.2097 198.94 39.5865V48.0828C198.94 48.4596 198.955 48.6903 198.989 48.7555C199.022 48.8206 199.118 48.8699 199.299 48.8858L200.197 48.9844Z" fill="white"/>
<path d="M206.331 38.7008V38.2588H210.268V38.7008L209.37 38.7835C209.191 38.7994 209.093 38.8487 209.06 38.9138C209.026 38.979 209.011 39.2097 209.011 39.5865V48.0828C209.011 48.4596 209.026 48.6903 209.06 48.7555C209.093 48.8206 209.189 48.8699 209.37 48.8858L210.268 48.9844V49.4105H206.331V48.9844L207.229 48.8858C207.41 48.8699 207.508 48.8206 207.539 48.7555C207.573 48.6903 207.588 48.4596 207.588 48.0828V39.5865C207.588 39.2097 207.573 38.9808 207.539 38.9138C207.506 38.8487 207.41 38.7994 207.229 38.7835L206.331 38.7008Z" fill="white"/>
<path d="M221.072 49.576C219.683 49.576 218.638 49.1164 217.919 48.1814C217.184 47.2463 216.825 45.9996 216.825 44.4412V43.2104C216.825 42.1767 216.988 41.291 217.298 40.5215C217.609 39.7502 218.066 39.1603 218.67 38.7342C219.275 38.308 220.025 38.095 220.907 38.095C221.724 38.095 222.393 38.2587 222.933 38.5704C223.471 38.8979 223.848 39.3258 224.092 39.833C224.337 40.3577 224.402 40.9318 224.32 41.5393L222.915 41.8844C223.029 40.8349 222.915 40.0302 222.556 39.4561C222.196 38.8979 221.64 38.6197 220.907 38.6197C220.074 38.6197 219.453 38.9155 219.029 39.5054C218.589 40.0971 218.375 41.0638 218.375 42.3915V45.2618C218.375 46.6071 218.603 47.5738 219.061 48.1655C219.518 48.7554 220.204 49.0512 221.102 49.0512C221.461 49.0512 221.805 48.9861 222.131 48.854C222.457 48.7396 222.734 48.5265 222.964 48.2148C223.192 47.9031 223.339 47.477 223.389 46.9364L224.4 47.1988C224.155 48.0687 223.746 48.692 223.143 49.0354C222.538 49.3964 221.837 49.576 221.069 49.576H221.072Z" fill="white"/>
<path d="M231.327 32.8459C232.251 32.8459 233 32.0937 233 31.166C233 30.2382 232.251 29.4861 231.327 29.4861C230.403 29.4861 229.654 30.2382 229.654 31.166C229.654 32.0937 230.403 32.8459 231.327 32.8459Z" fill="white"/>
</svg>
