<svg width="20" height="21" viewBox="0 0 20 21" fill="none" xmlns="http://www.w3.org/2000/svg">
<path fill-rule="evenodd" clip-rule="evenodd" d="M18.1907 13.2167C16.9816 13.2167 15.7932 13.0209 14.6666 12.6432C14.1033 12.4474 13.4644 12.6013 13.1003 12.9789L10.8746 14.6852C8.29847 13.2866 6.7116 11.6712 5.35142 9.06285L6.97951 6.86008C7.40543 6.42651 7.55656 5.80414 7.37108 5.20974C7.00012 4.05591 6.80777 2.84613 6.80777 1.61537C6.80777 0.727266 6.09333 0 5.22089 0H1.58688C0.714438 0 0 0.727266 0 1.61537C0 11.8251 8.15421 20.1257 18.1838 20.1257C19.0563 20.1257 19.7707 19.3984 19.7707 18.5103V14.825C19.7707 13.9369 19.0563 13.2097 18.1838 13.2097L18.1907 13.2167ZM18.6784 18.5173C18.6784 18.79 18.4586 19.0138 18.1907 19.0138C8.77248 19.0138 1.10601 11.2097 1.10601 1.62236C1.10601 1.34964 1.32583 1.12586 1.59375 1.12586H5.22776C5.49568 1.12586 5.71551 1.34964 5.71551 1.62236C5.71551 2.972 5.92159 4.30066 6.33377 5.55939C6.38873 5.7482 6.34751 5.93701 6.16203 6.13281L4.27289 8.67824C4.14924 8.84607 4.12863 9.07684 4.21793 9.26565C5.75672 12.3495 7.63212 14.2516 10.6822 15.846C10.8677 15.9439 11.0944 15.9229 11.2661 15.7971L13.8216 13.825C13.9522 13.6922 14.1445 13.6502 14.3231 13.7062C15.5665 14.1257 16.8717 14.3355 18.1976 14.3355C18.4655 14.3355 18.6853 14.5593 18.6853 14.832V18.5173H18.6784Z" fill="#2D3047"/>
</svg>
