<svg width="266" height="57" viewBox="0 0 266 57" fill="none" xmlns="http://www.w3.org/2000/svg">
<path d="M75.7234 29.4205C74.1117 29.4205 72.6643 29.1572 71.347 28.6285C70.0316 28.0998 68.9125 27.3399 67.9596 26.3146C67.0046 25.2914 66.2819 24.035 65.7874 22.5494C65.2609 21.0618 64.9986 19.3791 64.9986 17.4613C64.9986 15.5455 65.2949 13.8267 65.8875 12.3411C66.4481 10.8535 67.2368 9.63127 68.2238 8.60803C69.2108 7.5848 70.362 6.82491 71.6793 6.2962C72.9946 5.7675 74.41 5.50415 75.8915 5.50415C76.8465 5.50415 77.7013 5.57049 78.4581 5.70317C79.2149 5.83585 79.8735 6.00069 80.4321 6.16553C80.9906 6.33038 81.4191 6.5294 81.7814 6.69424C82.1438 6.85908 82.374 6.99176 82.5042 7.09027L81.5832 9.73379C81.385 9.60111 81.0887 9.47045 80.7284 9.30359C80.366 9.13875 79.9396 9.00607 79.4791 8.84123C78.9846 8.67638 78.4921 8.5437 77.9336 8.4452C77.375 8.34469 76.7824 8.31252 76.2219 8.31252C75.0046 8.31252 73.9195 8.51154 72.9646 8.93973C72.0096 9.36792 71.1888 9.96297 70.4961 10.757C69.8054 11.5491 69.3109 12.508 68.9506 13.6317C68.5882 14.7877 68.39 16.0441 68.39 17.4654C68.39 18.8203 68.5542 20.0747 68.8845 21.1985C69.1808 22.3222 69.6753 23.2791 70.2999 24.0732C70.9245 24.8994 71.7474 25.5266 72.7023 25.9568C73.6573 26.387 74.7424 26.6182 76.0257 26.6182C77.5071 26.6182 78.7244 26.4533 79.6773 26.1558C80.6323 25.8583 81.355 25.5608 81.8495 25.3296L82.6723 27.9711C82.5082 28.0716 82.2439 28.2023 81.8495 28.3671C81.4551 28.532 80.9606 28.6968 80.368 28.8637C79.7754 29.0285 79.0847 29.1612 78.2939 29.2597C77.5051 29.3602 76.6503 29.4245 75.7274 29.4245L75.7234 29.4205Z" fill="#1C5475"/>
<path d="M85.9516 28.924V3.81551L89.0107 3.2868V12.0738C89.5692 11.8426 90.1959 11.6777 90.8525 11.5451C91.4771 11.4466 92.1358 11.3802 92.7604 11.3802C94.1098 11.3802 95.2609 11.5792 96.1498 11.9431C97.0387 12.3391 97.7614 12.8678 98.322 13.5614C98.8485 14.2549 99.2109 15.1133 99.4411 16.0722C99.6714 17.0311 99.7695 18.1207 99.7695 19.2766V28.924H96.7104V19.938C96.7104 18.8806 96.6443 17.988 96.5122 17.2281C96.348 16.4683 96.1178 15.8732 95.7875 15.4108C95.4591 14.9485 95.0307 14.6168 94.4721 14.3856C93.9136 14.1886 93.2549 14.0881 92.4321 14.0881C92.1038 14.0881 91.7734 14.1202 91.4131 14.1544C91.0507 14.1866 90.7224 14.2529 90.4261 14.2871C90.0958 14.3534 89.8015 14.4198 89.5712 14.4861C89.309 14.5525 89.1108 14.6188 89.0127 14.651V28.922H85.9536L85.9516 28.924Z" fill="#1C5475"/>
<path d="M110.885 11.3822C111.147 11.3822 111.443 11.3822 111.806 11.4164C112.134 11.4485 112.464 11.5149 112.793 11.5491C113.121 11.6154 113.417 11.6817 113.714 11.7139C113.976 11.7802 114.174 11.8466 114.306 11.8787L113.78 14.5544C113.549 14.4559 113.155 14.3554 112.594 14.2247C112.036 14.1242 111.311 14.0599 110.422 14.0599C109.864 14.0599 109.303 14.1262 108.745 14.2247C108.184 14.3574 107.79 14.4559 107.625 14.4881V28.926H104.566V12.4738C105.291 12.2104 106.178 11.9451 107.265 11.7139C108.35 11.4827 109.535 11.3822 110.883 11.3822H110.885Z" fill="#1C5475"/>
<path d="M120.158 28.924H117.099V11.7441H120.158V28.924ZM118.612 8.64018C118.052 8.64018 117.593 8.44317 117.231 8.07931C116.836 7.71545 116.638 7.25308 116.638 6.62588C116.638 5.99867 116.836 5.50213 117.231 5.13826C117.593 4.7744 118.054 4.60956 118.612 4.60956C119.171 4.60956 119.631 4.7744 120.026 5.13826C120.388 5.50213 120.586 5.99666 120.586 6.62588C120.586 7.25308 120.388 7.71746 120.026 8.07931C119.631 8.44317 119.171 8.64018 118.612 8.64018Z" fill="#1C5475"/>
<path d="M129.235 26.7107C130.484 26.7107 131.407 26.5458 132.032 26.2141C132.624 25.8845 132.921 25.3558 132.921 24.628C132.921 23.8681 132.624 23.2731 132.032 22.8449C131.439 22.4147 130.452 21.9202 129.103 21.3573C128.446 21.0919 127.819 20.8286 127.227 20.5311C126.602 20.2677 126.076 19.936 125.647 19.5722C125.221 19.2083 124.858 18.7459 124.594 18.2172C124.332 17.6885 124.2 17.0271 124.2 16.2672C124.2 14.7475 124.76 13.5252 125.877 12.6326C126.997 11.7401 128.51 11.3119 130.45 11.3119C130.945 11.3119 131.405 11.3441 131.898 11.3782C132.392 11.4446 132.818 11.5109 133.247 11.5772C133.675 11.6778 134.036 11.7421 134.366 11.8406C134.662 11.9411 134.927 12.0054 135.091 12.0718L134.532 14.7153C134.204 14.5505 133.677 14.3514 132.987 14.1544C132.296 13.9896 131.441 13.8891 130.454 13.8891C129.599 13.8891 128.842 14.0539 128.218 14.3856C127.593 14.7495 127.263 15.2782 127.263 16.0039C127.263 16.3678 127.329 16.6974 127.493 16.995C127.625 17.2925 127.855 17.5237 128.15 17.7549C128.446 17.986 128.808 18.2172 129.237 18.4162C129.663 18.6153 130.192 18.8123 130.816 19.0435C131.639 19.341 132.362 19.6385 132.989 19.936C133.613 20.2335 134.174 20.5954 134.634 20.9934C135.061 21.3895 135.423 21.8518 135.653 22.4147C135.884 22.9756 136.016 23.6691 136.016 24.4953C136.016 26.0815 135.423 27.2695 134.272 28.0958C133.087 28.922 131.409 29.318 129.239 29.318C127.725 29.318 126.54 29.1853 125.685 28.9542C124.83 28.6908 124.238 28.4918 123.942 28.3591L124.502 25.7156C124.864 25.8483 125.423 26.0453 126.18 26.3106C126.937 26.576 127.958 26.7067 129.241 26.7067L129.235 26.7107Z" fill="#1C5475"/>
<path d="M158.709 19.343C159.071 19.7732 159.497 20.3683 160.058 21.0618C160.584 21.7896 161.143 22.5816 161.704 23.44C162.262 24.3326 162.855 25.2231 163.415 26.182C163.974 27.1409 164.434 28.0315 164.829 28.9241H161.341C160.913 28.0978 160.42 27.2395 159.926 26.3811C159.399 25.5227 158.873 24.6964 158.346 23.9024C157.82 23.1425 157.293 22.4148 156.801 21.7212C156.274 21.0277 155.814 20.4326 155.385 19.9381C155.089 19.9703 154.827 19.9703 154.53 19.9703C154.234 19.9703 153.906 19.9703 153.609 19.9703H150.747V28.9241H147.555V6.36061C148.444 6.12943 149.463 5.99675 150.582 5.89825C151.668 5.83191 152.689 5.79974 153.609 5.79974C156.801 5.79974 159.269 6.39479 160.947 7.61704C162.625 8.8393 163.447 10.6224 163.447 13.0348C163.447 14.5545 163.053 15.8431 162.262 16.9327C161.439 18.0223 160.256 18.8163 158.709 19.343ZM153.872 8.6061C152.522 8.6061 151.469 8.63827 150.747 8.70662V17.3287H153.017C154.102 17.3287 155.089 17.2624 155.978 17.1639C156.867 17.0634 157.589 16.8322 158.216 16.5367C158.809 16.2392 159.269 15.7768 159.598 15.2159C159.926 14.6551 160.092 13.9273 160.092 13.0026C160.092 12.1442 159.928 11.4165 159.598 10.8556C159.269 10.2947 158.841 9.83238 158.282 9.50068C157.724 9.16898 157.065 8.93981 156.308 8.80713C155.551 8.67445 154.729 8.60811 153.874 8.60811L153.872 8.6061Z" fill="#1C5475"/>
<path d="M167.884 28.924V3.81551L170.943 3.2868V12.0738C171.501 11.8426 172.128 11.6777 172.784 11.5451C173.409 11.4466 174.068 11.3802 174.692 11.3802C176.042 11.3802 177.193 11.5792 178.082 11.9431C178.971 12.3391 179.693 12.8678 180.254 13.5614C180.78 14.2549 181.143 15.1133 181.373 16.0722C181.603 17.0311 181.701 18.1207 181.701 19.2766V28.924H178.642V19.938C178.642 18.8806 178.576 17.988 178.444 17.2281C178.28 16.4683 178.05 15.8732 177.719 15.4108C177.391 14.9485 176.963 14.6168 176.404 14.3856C175.846 14.1886 175.187 14.0881 174.364 14.0881C174.036 14.0881 173.705 14.1202 173.345 14.1544C172.983 14.1866 172.654 14.2529 172.358 14.2871C172.028 14.3534 171.733 14.4198 171.503 14.4861C171.241 14.5525 171.043 14.6188 170.945 14.651V28.922H167.886L167.884 28.924Z" fill="#1C5475"/>
<path d="M201.601 20.3341C201.601 21.689 201.403 22.9434 201.009 24.035C200.614 25.1266 200.054 26.0835 199.365 26.8775C198.64 27.6696 197.786 28.2646 196.799 28.6948C195.812 29.125 194.727 29.3562 193.575 29.3562C192.424 29.3562 191.339 29.125 190.352 28.6948C189.365 28.2646 188.51 27.6716 187.82 26.8775C187.095 26.0855 186.536 25.1266 186.142 24.035C185.748 22.9454 185.549 21.689 185.549 20.3341C185.549 18.9791 185.748 17.7569 186.142 16.6351C186.536 15.5435 187.097 14.5867 187.82 13.7926C188.51 13.0005 189.365 12.3713 190.352 11.9431C191.339 11.5129 192.426 11.3159 193.575 11.3159C194.727 11.3159 195.812 11.5149 196.799 11.9431C197.786 12.3713 198.64 13.0005 199.365 13.7926C200.056 14.5846 200.614 15.5435 201.009 16.6351C201.403 17.7589 201.601 18.9811 201.601 20.3341ZM198.41 20.3341C198.41 18.3861 197.982 16.8643 197.127 15.7084C196.238 14.5846 195.053 14.0238 193.573 14.0238C192.092 14.0238 190.909 14.5846 190.054 15.7084C189.165 16.8643 188.739 18.3841 188.739 20.3341C188.739 22.284 189.165 23.8038 190.054 24.9256C190.909 26.0815 192.094 26.6443 193.573 26.6443C195.055 26.6443 196.238 26.0835 197.127 24.9256C197.982 23.8018 198.41 22.282 198.41 20.3341Z" fill="#1C5475"/>
<path d="M216.797 15.3787C216.435 15.0812 215.876 14.7836 215.185 14.4861C214.495 14.1886 213.704 14.0559 212.883 14.0559C211.994 14.0559 211.271 14.2208 210.645 14.5183C210.02 14.848 209.494 15.2782 209.099 15.839C208.705 16.4019 208.408 17.0935 208.244 17.8533C208.08 18.6132 207.982 19.4395 207.982 20.332C207.982 22.3483 208.477 23.8681 209.464 24.9577C210.45 26.0473 211.766 26.6101 213.411 26.6101C214.234 26.6101 214.957 26.578 215.518 26.4775C216.076 26.4111 216.505 26.3448 216.801 26.2463V15.3767L216.797 15.3787ZM216.797 3.81551L219.858 3.2868V28.4275C219.167 28.6265 218.246 28.8235 217.159 29.0225C216.072 29.2215 214.791 29.32 213.375 29.32C212.06 29.32 210.875 29.121 209.822 28.6928C208.769 28.2626 207.88 27.6696 207.123 26.9097C206.366 26.1498 205.808 25.1909 205.411 24.0671C204.985 22.9776 204.787 21.7211 204.787 20.334C204.787 19.0133 204.951 17.791 205.313 16.7014C205.642 15.6099 206.136 14.653 206.795 13.8589C207.453 13.0668 208.276 12.4396 209.229 12.0094C210.184 11.5792 211.269 11.3481 212.487 11.3481C213.474 11.3481 214.362 11.4807 215.119 11.7441C215.876 12.0074 216.435 12.2728 216.797 12.504V3.81551Z" fill="#1C5475"/>
<path d="M223.998 20.3682C223.998 18.8485 224.228 17.5257 224.655 16.3698C225.083 15.246 225.676 14.3213 226.398 13.5614C227.123 12.8015 227.946 12.2407 228.899 11.8768C229.852 11.5129 230.807 11.3159 231.794 11.3159C234.098 11.3159 235.874 12.0436 237.091 13.4629C238.308 14.9163 238.933 17.1297 238.933 20.0707C238.933 20.2034 238.933 20.3682 238.933 20.5673C238.933 20.7984 238.933 20.9975 238.901 21.1623H227.189C227.321 22.9454 227.846 24.3004 228.735 25.2251C229.624 26.1498 231.037 26.6122 232.947 26.6122C234.032 26.6122 234.921 26.5117 235.678 26.3147C236.402 26.1498 236.961 25.9508 237.323 25.786L237.75 28.3631C237.387 28.5622 236.731 28.7592 235.81 28.9904C234.855 29.2215 233.802 29.3221 232.619 29.3221C231.137 29.3221 229.854 29.0909 228.769 28.6285C227.684 28.1983 226.763 27.5711 226.07 26.779C225.379 25.987 224.853 25.0281 224.525 23.9385C224.162 22.8489 223.998 21.6588 223.998 20.3702V20.3682ZM235.744 18.6836C235.776 17.2965 235.415 16.1406 234.725 15.248C234 14.3555 233.013 13.9273 231.764 13.9273C231.073 13.9273 230.448 14.06 229.922 14.3233C229.361 14.6208 228.903 14.9847 228.541 15.4149C228.178 15.8431 227.882 16.3718 227.686 16.9347C227.455 17.4955 227.323 18.0906 227.257 18.6856H235.746L235.744 18.6836Z" fill="#1C5475"/>
<path d="M247.155 26.7107C248.404 26.7107 249.327 26.5458 249.952 26.2141C250.544 25.8845 250.841 25.3558 250.841 24.628C250.841 23.8681 250.544 23.2731 249.952 22.8449C249.359 22.4147 248.372 21.9202 247.023 21.3573C246.366 21.0919 245.74 20.8286 245.147 20.5311C244.522 20.2677 243.996 19.936 243.567 19.5722C243.141 19.2083 242.779 18.7459 242.514 18.2172C242.252 17.6885 242.12 17.0271 242.12 16.2672C242.12 14.7475 242.681 13.5252 243.798 12.6326C244.917 11.7401 246.43 11.3119 248.37 11.3119C248.865 11.3119 249.325 11.3441 249.818 11.3782C250.312 11.4446 250.739 11.5109 251.167 11.5772C251.595 11.6778 251.956 11.7421 252.286 11.8406C252.582 11.9411 252.847 12.0054 253.011 12.0718L252.452 14.7153C252.124 14.5505 251.597 14.3514 250.907 14.1544C250.216 13.9896 249.361 13.8891 248.374 13.8891C247.519 13.8891 246.763 14.0539 246.138 14.3856C245.513 14.7495 245.183 15.2782 245.183 16.0039C245.183 16.3678 245.249 16.6974 245.413 16.995C245.545 17.2925 245.776 17.5237 246.07 17.7549C246.366 17.986 246.729 18.2172 247.157 18.4162C247.583 18.6153 248.112 18.8123 248.737 19.0435C249.559 19.341 250.282 19.6385 250.909 19.936C251.533 20.2335 252.094 20.5954 252.554 20.9934C252.981 21.3895 253.343 21.8518 253.573 22.4147C253.804 22.9756 253.936 23.6691 253.936 24.4953C253.936 26.0815 253.343 27.2695 252.192 28.0958C251.007 28.922 249.329 29.318 247.159 29.318C245.645 29.318 244.46 29.1853 243.605 28.9542C242.751 28.6908 242.158 28.4918 241.862 28.3591L242.422 25.7156C242.785 25.8483 243.343 26.0453 244.1 26.3106C244.857 26.576 245.878 26.7067 247.161 26.7067L247.155 26.7107Z" fill="#1C5475"/>
<path fill-rule="evenodd" clip-rule="evenodd" d="M22.3064 2.36812C27.7338 2.36812 32.6828 4.42263 36.4245 7.79991C35.4275 8.17181 34.4406 8.54975 33.4776 8.93773C32.3505 9.39005 32.0421 9.70767 31.0692 10.2685C30.5406 10.5741 29.0091 10.5218 28.3504 10.5238C27.3715 10.5259 26.4505 10.4475 25.4796 10.351C23.5176 10.156 20.3684 10.0776 18.7108 11.2737C17.976 11.8044 17.5416 12.4537 17.1432 13.2578L17.0591 13.4368C16.7648 14.0841 17.0891 15.1777 17.1892 15.9094C17.4815 18.0705 17.4755 19.8496 16.4245 21.8197C15.996 22.5675 15.6917 23.066 15.7918 23.9586C15.9 24.5758 17.3834 25.9729 17.8459 26.5639C18.5586 27.4746 18.7828 28.343 19.1492 29.4406C19.6197 30.8599 19.6958 31.6882 19.6037 33.1838C19.5816 33.5014 19.0751 33.7869 18.8389 33.9698C18.4705 34.2553 18.0942 34.5327 17.7258 34.8202C16.3744 35.8836 15.3034 36.8546 14.0281 37.9884C12.6987 39.1684 11.7458 39.7574 10.5946 41.1908L10.5626 41.231C4.90292 37.4235 1.17518 30.9423 1.17518 23.5887C1.17518 11.8687 10.6367 2.36812 22.3064 2.36812ZM37.6918 9.04227C39.3054 10.7631 40.6368 12.7553 41.6097 14.9425C41.4055 15.051 41.2234 15.1395 41.0812 15.1958C40.851 15.2902 40.6188 15.3827 40.3865 15.4752C38.6768 16.1466 36.9271 16.7216 35.2293 17.4151C30.2363 19.4556 28.3805 20.2697 24.4265 24.041C24.1642 24.2923 24.0481 24.628 24.0842 24.1978C24.1903 22.9032 24.1863 21.5744 24.6287 20.3361C25.5176 17.8513 26.3084 16.814 28.0261 14.8801C29.1352 13.6921 32.0241 11.8908 33.4776 10.9299C34.2263 10.4354 35.9341 9.76798 36.833 9.37397C37.0972 9.25938 37.3855 9.1468 37.6878 9.04026L37.6918 9.04227ZM42.9531 19.0434C43.2714 20.5069 43.4396 22.0287 43.4396 23.5887C43.4396 35.3087 33.9781 44.8093 22.3064 44.8093C19.0351 44.8093 15.938 44.0635 13.1752 42.7306C14.6167 41.7275 16.0681 40.8651 17.0831 40.5153C18.6928 39.9605 21.7879 38.9734 23.0852 38.0125C24.7188 36.7299 25.928 34.6634 25.6678 32.5284C25.6117 32.1465 25.5416 31.7665 25.4856 31.3826C28.1062 31.3705 29.9 31.849 32.2944 30.3533C33.7398 29.3743 34.7749 28.6647 35.2273 26.8795C34.2984 26.6363 33.3915 26.5096 32.4486 26.3569C35.0612 26.0654 36.4286 26.2302 38.6748 24.5758C38.867 24.431 39.0212 24.2963 39.1973 24.1315C40.4806 22.7987 41.7559 20.8145 42.809 19.2646C42.861 19.1882 42.909 19.1158 42.9551 19.0455L42.9531 19.0434ZM9.81585 42.1557C8.58461 43.6775 7.35138 45.2335 6.47049 46.9683C6.16819 47.5634 5.91393 48.0257 5.52755 48.5746C4.61063 49.7847 3.95397 50.4542 3.40942 51.9217C3.04305 52.9047 2.71072 53.9259 2.0901 54.7823C1.8919 55.0557 2.53454 55.1562 2.74275 55.1361C3.54556 55.0517 3.84586 54.4084 4.27028 53.8435C4.86088 53.0555 5.51153 53.743 6.19021 51.8131C6.95097 49.2058 6.68471 48.5504 8.7688 46.3512C9.49753 45.5812 10.7388 44.5258 12.0941 43.5127C15.1552 45.0988 18.6287 45.9954 22.3104 45.9954C34.6348 45.9954 44.6228 35.964 44.6228 23.5907C44.6228 21.5 44.3365 19.4777 43.804 17.5578C44.0062 17.1176 44.1803 16.6472 44.4366 15.9778C44.7289 15.2139 44.9631 14.8339 45.5637 14.271C46.2204 13.6901 46.2904 13.6559 46.813 12.8839C48.3405 10.5661 49.866 7.60491 50.5687 4.91113C50.6889 4.4367 50.789 3.9663 50.8871 3.48785C50.9791 3.02548 51.3575 0.170874 51.2754 0C51.1994 0.0120617 49.3435 1.74091 49.0452 1.9942C48.0022 2.88074 46.9771 3.64867 45.7619 4.28593C44.5327 4.87696 43.7719 5.20463 42.4786 5.65092C40.903 6.1957 39.2834 6.75858 37.6778 7.34358C33.6778 3.52604 28.2684 1.18406 22.3124 1.18406C9.99002 1.18406 0 11.2154 0 23.5887C0 31.3142 3.89591 38.1271 9.82185 42.1557H9.81585ZM21.5917 16.5668C21.2413 16.5989 21.2453 16.5567 20.945 16.3778C21.7318 15.2822 22.2443 14.8259 23.6037 14.452C24.0161 14.3394 24.3144 14.2992 24.7388 14.2931C24.1662 15.1576 23.6077 15.8632 22.6287 16.3074C22.2763 16.4663 21.972 16.5225 21.5937 16.5668H21.5917ZM42.6388 14.3454C43.1133 14.0479 43.5557 13.7363 43.7979 13.5131C44.5367 12.8256 45.3455 12.1663 45.9081 11.3199C47.3035 9.2252 48.7069 7.03198 49.2895 4.55129C49.4776 3.75119 49.5797 3.88789 48.7569 4.41459C46.9591 5.56447 45.2934 6.34446 43.3195 7.13853C42.3365 7.52651 41.5437 7.8361 40.5287 8.15372C40.0362 8.30851 39.4836 8.46934 38.9271 8.64021C40.4366 10.3309 41.6938 12.2507 42.6388 14.3454ZM41.0011 18.8505C41.3835 18.6394 41.1032 18.9268 40.9251 19.2163C39.7519 21.1442 39.3255 21.7352 37.4796 23.1163C36.5046 23.846 35.7599 23.9325 34.5987 24.2079C32.2484 24.7587 29.7358 25.2211 27.4275 25.8623C26.5246 26.1136 25.8299 26.5458 25.0391 27.0263C26.3364 24.7949 26.3144 24.7125 28.4525 23.0499C31.2994 20.8366 33.0392 20.9713 36.4245 20.2858L36.6808 20.2335C38.1303 19.936 39.6938 19.544 41.0031 18.8484L41.0011 18.8505ZM24.4886 29.8065C24.3845 29.7161 24.4325 29.6819 24.5526 29.5211C25.2493 28.6044 26.2704 28.0395 27.3394 27.6555C28.7008 27.167 31.7378 26.8956 33.1272 27.3118C33.5457 27.4364 33.2574 27.6073 32.9691 27.9148C31.4836 29.4989 30.2584 29.7945 28.1703 29.9754C27.0972 30.0679 25.6317 29.9412 24.5466 29.8266L24.4886 29.8065Z" fill="#0096B1"/>
<path d="M262.949 34.9931H40.464V36.1651H262.949V34.9931Z" fill="#0096B1"/>
<path d="M73.0446 44.1821V43.6775H76.6062V44.1821L75.5812 44.2766C75.375 44.2946 75.2628 44.3509 75.2268 44.4253C75.1888 44.5198 75.1708 44.763 75.1708 45.1932V56.4086H74.2558L67.469 44.9118V54.8909C67.469 55.3211 67.487 55.5643 67.5251 55.6407C67.5631 55.7352 67.6732 55.7895 67.8794 55.8096L68.9045 55.9221V56.4086H65.3429V55.9221L66.3679 55.8096C66.5741 55.7915 66.6862 55.7352 66.7223 55.6407C66.7603 55.5663 66.7783 55.3211 66.7783 54.8909V45.1912C66.7783 44.761 66.7603 44.5178 66.7223 44.4233C66.6842 44.3489 66.5741 44.2926 66.3679 44.2745L65.3429 44.1801V43.6755H68.5681L74.4801 53.7128V45.1932C74.4801 44.763 74.462 44.5198 74.424 44.4253C74.386 44.3509 74.2739 44.2946 74.0696 44.2766L73.0446 44.1821Z" fill="#0096B1"/>
<path d="M86.0495 55.9222V56.4087H82.5059V55.9222L83.5129 55.8096C83.6431 55.7915 83.7552 55.7714 83.8112 55.7353C83.8673 55.7172 83.9414 55.6408 83.9974 55.5101C84.0535 55.3975 84.1095 55.1905 84.2036 54.8929L87.8032 43.6776H88.9784L92.6141 54.8929C92.7082 55.1925 92.7822 55.3975 92.8383 55.5101C92.8943 55.6408 92.9504 55.7172 93.0065 55.7353C93.0625 55.7734 93.1566 55.7915 93.2867 55.8096L94.3118 55.9222V56.4087H89.7812V55.9222L90.8062 55.8096C91.0125 55.7915 91.1246 55.7353 91.1426 55.6408C91.1606 55.5664 91.0865 55.3211 90.9564 54.8909L90.1916 52.4947H85.6411L84.8763 54.8909C84.7462 55.3211 84.6901 55.5644 84.7081 55.6408C84.7261 55.7353 84.8202 55.7895 85.0264 55.8096L86.0515 55.9222H86.0495ZM85.8252 51.8976H90.0014L87.9133 45.3803L85.8252 51.8976Z" fill="#0096B1"/>
<path d="M99.7094 43.6776H109.629V46.7292H109.145L108.604 44.7631C108.566 44.6123 108.53 44.5018 108.492 44.4254C108.436 44.3691 108.362 44.3128 108.232 44.2947C108.102 44.2766 107.896 44.2766 107.597 44.2766H105.489V54.8929C105.489 55.3231 105.509 55.5865 105.545 55.6609C105.583 55.7353 105.693 55.7915 105.9 55.8096L106.925 55.9222V56.4087H102.43V55.9222L103.455 55.8096C103.661 55.7915 103.773 55.7353 103.81 55.6609C103.848 55.5865 103.866 55.3231 103.866 54.8929V44.2766H101.739C101.459 44.2766 101.255 44.2766 101.125 44.2947C100.995 44.3128 100.901 44.3691 100.865 44.4254C100.809 44.4998 100.77 44.6123 100.734 44.7631L100.194 46.7292H99.7094V43.6776Z" fill="#0096B1"/>
<path d="M123.531 44.1821V43.6776H127.093V44.1821L126.066 44.2766C125.862 44.2947 125.75 44.351 125.711 44.4254C125.673 44.4998 125.655 44.7631 125.655 45.1933V52.0846C125.655 53.5079 125.339 54.6115 124.686 55.3995C124.034 56.2036 123.027 56.5977 121.683 56.5977C120.21 56.5977 119.091 56.1675 118.326 55.305C117.543 54.4446 117.151 53.2646 117.151 51.7468V45.1933C117.151 44.7631 117.133 44.5018 117.095 44.4254C117.057 44.351 116.947 44.2947 116.74 44.2766L115.715 44.1821V43.6776H120.21V44.1821L119.185 44.2766C118.981 44.2947 118.869 44.351 118.831 44.4254C118.793 44.4998 118.775 44.7631 118.775 45.1933V52.0283C118.775 53.3571 119.035 54.3502 119.539 55.0055C120.042 55.6609 120.807 55.9785 121.834 55.9785C122.879 55.9785 123.661 55.6408 124.184 54.9854C124.706 54.3301 124.967 53.3571 124.967 52.1007V45.1913C124.967 44.7611 124.949 44.4998 124.911 44.4234C124.873 44.349 124.763 44.2927 124.556 44.2746L123.529 44.1801L123.531 44.1821Z" fill="#0096B1"/>
<path d="M133.834 44.1821V43.6776H139.017C140.228 43.6776 141.179 43.959 141.832 44.54C142.484 45.1209 142.801 45.907 142.801 46.8618V47.4428C142.801 48.2107 142.595 48.848 142.186 49.3707C141.758 49.9135 141.161 50.2693 140.396 50.4743L142.783 54.8929C142.951 55.1925 143.063 55.3975 143.137 55.5101C143.211 55.6408 143.287 55.7172 143.361 55.7353C143.417 55.7734 143.509 55.7915 143.642 55.8096L144.48 55.9222V56.4087H141.666L138.719 50.6412H136.891V54.8909C136.891 55.3211 136.909 55.5845 136.947 55.6589C136.985 55.7332 137.095 55.7895 137.301 55.8076L138.326 55.9202V56.4067H133.832V55.9202L134.857 55.8076C135.063 55.7895 135.175 55.7332 135.211 55.6589C135.249 55.5845 135.267 55.3211 135.267 54.8909V45.1913C135.267 44.7611 135.249 44.4998 135.211 44.4234C135.173 44.349 135.063 44.2927 134.857 44.2746L133.832 44.1801L133.834 44.1821ZM139.017 44.2766H136.891V50.0441H139.017C139.67 50.0441 140.172 49.8371 140.546 49.4069C140.901 48.9948 141.087 48.3575 141.087 47.5152V46.7855C141.087 45.9431 140.901 45.3059 140.546 44.8958C140.174 44.4837 139.67 44.2786 139.017 44.2786V44.2766Z" fill="#0096B1"/>
<path d="M160.845 49.3324V50.7376C160.845 52.5549 160.434 53.9963 159.596 55.0256C158.757 56.0749 157.563 56.5976 156.016 56.5976C154.45 56.5976 153.255 56.0729 152.436 55.0256C151.597 53.9963 151.187 52.5549 151.187 50.7376V49.3324C151.187 47.5171 151.597 46.0939 152.436 45.0445C153.257 44.0152 154.45 43.4905 156.016 43.4905C157.563 43.4905 158.757 44.0152 159.596 45.0445C160.434 46.0939 160.845 47.5151 160.845 49.3324ZM159.073 48.3956C159.073 46.8417 158.813 45.7179 158.308 45.0626C157.786 44.4072 157.021 44.0896 156.014 44.0896C155.007 44.0896 154.242 44.4092 153.74 45.0626C153.217 45.7179 152.957 46.8417 152.957 48.3956V51.6724C152.957 53.2264 153.217 54.3501 153.74 55.0055C154.242 55.6608 155.007 55.9985 156.014 55.9985C157.021 55.9985 157.786 55.6608 158.308 55.0055C158.811 54.3501 159.073 53.2264 159.073 51.6724V48.3956Z" fill="#0096B1"/>
<path d="M168.33 44.1821V43.6776H173.625C174.857 43.6776 175.788 43.9771 176.44 44.5942C177.093 45.2114 177.409 46.0356 177.409 47.0669V47.6097C177.409 48.6389 177.091 49.4632 176.44 50.0803C175.788 50.6975 174.855 51.0171 173.625 51.0171H171.387V54.8929C171.387 55.3231 171.405 55.5865 171.443 55.6609C171.481 55.7554 171.591 55.7915 171.798 55.8096L173.197 55.9222V56.4087H168.33V55.9222L169.355 55.8096C169.561 55.7915 169.673 55.7353 169.709 55.6609C169.747 55.5865 169.766 55.3231 169.766 54.8929V45.1933C169.766 44.7631 169.747 44.5018 169.709 44.4254C169.671 44.351 169.561 44.2947 169.355 44.2766L168.33 44.1821ZM173.625 44.2766H171.387V50.418H173.625C175.005 50.418 175.695 49.5757 175.695 47.871V46.8035C175.695 45.1169 175.007 44.2766 173.625 44.2766Z" fill="#0096B1"/>
<path d="M186.857 55.9222V56.4087H183.313V55.9222L184.32 55.8096C184.45 55.7915 184.562 55.7714 184.618 55.7353C184.675 55.7172 184.749 55.6408 184.805 55.5101C184.861 55.3975 184.917 55.1905 185.011 54.8929L188.61 43.6776H189.786L193.421 54.8929C193.515 55.1925 193.59 55.3975 193.646 55.5101C193.702 55.6408 193.758 55.7172 193.814 55.7353C193.87 55.7734 193.964 55.7915 194.094 55.8096L195.119 55.9222V56.4087H190.588V55.9222L191.614 55.8096C191.82 55.7915 191.932 55.7353 191.95 55.6408C191.968 55.5664 191.894 55.3211 191.764 54.8909L190.999 52.4947H186.448L185.684 54.8909C185.553 55.3211 185.497 55.5644 185.515 55.6408C185.533 55.7353 185.628 55.7895 185.834 55.8096L186.859 55.9222H186.857ZM186.633 51.8976H190.809L188.721 45.3803L186.633 51.8976Z" fill="#0096B1"/>
<path d="M200.515 43.6776H210.434V46.7292H209.95L209.409 44.7631C209.371 44.6123 209.335 44.5018 209.297 44.4254C209.241 44.3691 209.167 44.3128 209.037 44.2947C208.907 44.2766 208.701 44.2766 208.402 44.2766H206.294V54.8929C206.294 55.3231 206.314 55.5865 206.35 55.6609C206.388 55.7353 206.499 55.7915 206.705 55.8096L207.73 55.9222V56.4087H203.235V55.9222L204.26 55.8096C204.466 55.7915 204.579 55.7353 204.615 55.6609C204.653 55.5865 204.671 55.3231 204.671 54.8929V44.2766H202.545C202.264 44.2766 202.06 44.2766 201.93 44.2947C201.8 44.3128 201.706 44.3691 201.67 44.4254C201.614 44.4998 201.576 44.6123 201.54 44.7631L200.999 46.7292H200.515V43.6776Z" fill="#0096B1"/>
<path d="M228.551 55.9222V56.4087H224.056V55.9222L225.081 55.8096C225.287 55.7915 225.4 55.7353 225.436 55.6609C225.474 55.5865 225.492 55.3231 225.492 54.8929V50.2874H219.86V54.8929C219.86 55.3231 219.878 55.5865 219.916 55.6609C219.954 55.7353 220.064 55.7915 220.27 55.8096L221.295 55.9222V56.4087H216.801V55.9222L217.826 55.8096C218.032 55.7915 218.144 55.7353 218.18 55.6609C218.218 55.5865 218.236 55.3231 218.236 54.8929V45.1933C218.236 44.7631 218.218 44.5018 218.18 44.4254C218.142 44.351 218.032 44.2947 217.826 44.2766L216.801 44.1821V43.6776H221.295V44.1821L220.27 44.2766C220.066 44.2947 219.954 44.351 219.916 44.4254C219.878 44.4998 219.86 44.7631 219.86 45.1933V49.6863H225.492V45.1933C225.492 44.7631 225.472 44.5018 225.436 44.4254C225.398 44.351 225.287 44.2947 225.081 44.2766L224.056 44.1821V43.6776H228.551V44.1821L227.526 44.2766C227.319 44.2947 227.207 44.351 227.171 44.4254C227.133 44.4998 227.115 44.7631 227.115 45.1933V54.8929C227.115 55.3231 227.133 55.5865 227.171 55.6609C227.209 55.7353 227.319 55.7915 227.526 55.8096L228.551 55.9222Z" fill="#0096B1"/>
<path d="M235.554 44.1821V43.6776H240.048V44.1821L239.023 44.2766C238.819 44.2947 238.707 44.351 238.669 44.4254C238.631 44.4998 238.613 44.7631 238.613 45.1933V54.8929C238.613 55.3231 238.631 55.5865 238.669 55.6609C238.707 55.7353 238.817 55.7915 239.023 55.8096L240.048 55.9222V56.4087H235.554V55.9222L236.579 55.8096C236.785 55.7915 236.897 55.7353 236.933 55.6609C236.971 55.5865 236.989 55.3231 236.989 54.8929V45.1933C236.989 44.7631 236.971 44.5018 236.933 44.4254C236.895 44.351 236.785 44.2947 236.579 44.2766L235.554 44.1821Z" fill="#0096B1"/>
<path d="M252.382 56.5976C250.797 56.5976 249.604 56.0729 248.783 55.0055C247.944 53.938 247.534 52.5147 247.534 50.7356V49.3304C247.534 48.1504 247.72 47.1392 248.074 46.2607C248.428 45.3802 248.951 44.7068 249.64 44.2203C250.33 43.7338 251.187 43.4905 252.194 43.4905C253.127 43.4905 253.89 43.6775 254.507 44.0333C255.121 44.4072 255.552 44.8957 255.83 45.4747C256.11 46.0738 256.184 46.7291 256.09 47.4227L254.487 47.8167C254.617 46.6185 254.487 45.6998 254.076 45.0445C253.666 44.4072 253.031 44.0896 252.194 44.0896C251.243 44.0896 250.535 44.4273 250.05 45.1008C249.548 45.7762 249.303 46.8799 249.303 48.3956V51.6724C249.303 53.2083 249.564 54.3119 250.086 54.9874C250.609 55.6608 251.391 55.9985 252.416 55.9985C252.827 55.9985 253.219 55.9242 253.592 55.7734C253.964 55.6427 254.28 55.3995 254.543 55.0437C254.803 54.6878 254.971 54.2013 255.027 53.5842L256.182 53.8837C255.902 54.8768 255.436 55.5884 254.747 55.9805C254.056 56.3926 253.255 56.5976 252.378 56.5976H252.382Z" fill="#0096B1"/>
<path d="M264.09 37.4979C265.145 37.4979 266 36.6393 266 35.5801C266 34.5209 265.145 33.6623 264.09 33.6623C263.035 33.6623 262.18 34.5209 262.18 35.5801C262.18 36.6393 263.035 37.4979 264.09 37.4979Z" fill="#C1D7EF"/>
</svg>
