<svg width="64" height="64" viewBox="0 0 64 64" fill="none" xmlns="http://www.w3.org/2000/svg">
<path d="M31.5033 63.0067C48.9022 63.0067 63.0067 48.9022 63.0067 31.5033C63.0067 14.1045 48.9022 0 31.5033 0C14.1045 0 0 14.1045 0 31.5033C0 48.9022 14.1045 63.0067 31.5033 63.0067Z" fill="#0096B1" fill-opacity="0.6"/>
<path fill-rule="evenodd" clip-rule="evenodd" d="M29.5118 16.5263C32.7531 16.5263 35.7002 17.7493 37.939 19.7542C37.3442 19.9747 36.7561 20.2019 36.1814 20.4291C35.5064 20.6965 35.326 20.8836 34.7446 21.2177C34.4305 21.3982 33.5149 21.3714 33.1206 21.3714C32.5392 21.3714 31.9845 21.3247 31.4098 21.2712C30.2403 21.1576 28.3624 21.1108 27.3733 21.8192C26.9322 22.1333 26.6783 22.5209 26.4377 22.9954L26.3842 23.1023C26.2105 23.4899 26.4043 24.1382 26.4577 24.5726C26.6315 25.8557 26.6315 26.9116 26.0033 28.0878C25.7493 28.5289 25.5622 28.8296 25.6224 29.3575C25.6892 29.7251 26.5713 30.5538 26.8453 30.908C27.2664 31.4493 27.4067 31.9639 27.6206 32.6188C27.9012 33.4609 27.948 33.9554 27.8946 34.8442C27.8812 35.0313 27.5805 35.2051 27.4401 35.312C27.2196 35.4791 26.9991 35.6462 26.7785 35.8199C25.9699 36.4548 25.335 37.0295 24.5731 37.7045C23.7779 38.4062 23.2098 38.7537 22.5215 39.6092L22.5014 39.6359C19.1266 37.3771 16.9011 33.521 16.9011 29.1504C16.9011 22.1868 22.5482 16.5397 29.5118 16.5397V16.5263ZM38.6942 20.4893C39.6565 21.5118 40.4518 22.6947 41.0332 23.9978C40.9129 24.0647 40.806 24.1114 40.7191 24.1515C40.5788 24.205 40.4451 24.2651 40.3048 24.3186C39.2823 24.7196 38.2397 25.0604 37.2239 25.4681C34.2434 26.6777 33.134 27.1655 30.7749 29.4043C30.6145 29.5513 30.5477 29.7518 30.5677 29.4979C30.6279 28.7293 30.6279 27.9408 30.8952 27.2056C31.4232 25.7287 31.8976 25.1139 32.9201 23.9644C33.5817 23.256 35.3059 22.1868 36.1747 21.6187C36.6225 21.3247 37.6383 20.9304 38.1796 20.6965C38.34 20.6296 38.5071 20.5628 38.6875 20.496L38.6942 20.4893ZM41.8352 26.4304C42.0223 27.2992 42.1292 28.2014 42.1292 29.1303C42.1292 36.0939 36.4821 41.741 29.5185 41.741C27.5671 41.741 25.7159 41.2999 24.0719 40.5047C24.934 39.9099 25.7961 39.3953 26.4043 39.1881C27.3666 38.8607 29.2111 38.2726 29.9863 37.6978C30.962 36.936 31.6838 35.7063 31.5301 34.4366C31.4967 34.2093 31.4566 33.9821 31.4232 33.7549C32.987 33.7482 34.0562 34.0289 35.4864 33.1468C36.3485 32.5653 36.97 32.1443 37.2373 31.0817C36.6826 30.9347 36.1413 30.8612 35.5799 30.7676C37.1371 30.5939 37.9524 30.6941 39.2956 29.7117C39.4093 29.6249 39.5028 29.5447 39.6097 29.4511C40.3783 28.6558 41.1335 27.4796 41.7616 26.5574C41.7951 26.5106 41.8218 26.4705 41.8485 26.4304H41.8352ZM22.0604 40.1638C21.3252 41.066 20.5901 41.995 20.0622 43.0241C19.8817 43.3783 19.728 43.6523 19.5008 43.9798C18.9528 44.7016 18.5585 45.0958 18.2377 45.9713C18.0172 46.5527 17.8234 47.1609 17.4491 47.6688C17.3288 47.8292 17.7165 47.8893 17.8368 47.8759C18.3179 47.8292 18.4984 47.4416 18.7456 47.1074C19.0998 46.6396 19.4874 47.0473 19.8884 45.8978C20.3429 44.3474 20.1825 43.9597 21.4255 42.6499C21.8599 42.1955 22.6017 41.5673 23.4103 40.9658C25.2348 41.9081 27.3065 42.4427 29.5052 42.4427C36.8564 42.4427 42.8176 36.4815 42.8176 29.1303C42.8176 27.8873 42.6438 26.6844 42.3297 25.5483C42.45 25.2876 42.5569 25.007 42.7106 24.606C42.8844 24.1515 43.0247 23.9243 43.3856 23.5902C43.7799 23.2427 43.82 23.2226 44.1274 22.7682C45.0363 21.3915 45.9518 19.6339 46.3662 18.03C46.4397 17.7493 46.4999 17.4686 46.5533 17.1812C46.6068 16.9072 46.834 15.2098 46.7872 15.1095C46.7404 15.1162 45.6377 16.1454 45.4573 16.2924C44.8358 16.8204 44.221 17.2748 43.4992 17.6557C42.7641 18.0099 42.3096 18.2037 41.5411 18.4644C40.5988 18.7851 39.6365 19.126 38.6741 19.4668C36.2883 17.2013 33.0605 15.8046 29.5052 15.8046C22.1539 15.8046 16.1927 21.7657 16.1927 29.117C16.1927 33.7081 18.5184 37.758 22.0537 40.1505L22.0604 40.1638ZM29.0841 24.9602C28.877 24.9802 28.877 24.9535 28.6965 24.8466C29.1643 24.1916 29.4717 23.9243 30.2804 23.7038C30.5276 23.637 30.7014 23.6102 30.9553 23.6102C30.6145 24.1248 30.2804 24.5458 29.6923 24.8065C29.4851 24.9 29.298 24.9334 29.0774 24.9602H29.0841ZM41.6414 23.6369C41.922 23.4565 42.1894 23.2761 42.3297 23.1424C42.7708 22.7348 43.2519 22.3405 43.5928 21.8392C44.4281 20.5962 45.2635 19.293 45.611 17.8161C45.7246 17.3416 45.7848 17.4218 45.2902 17.7359C44.2143 18.4176 43.2252 18.8854 42.0423 19.3532C41.4542 19.5804 40.9797 19.7675 40.3783 19.9547C40.0842 20.0482 39.7568 20.1418 39.4226 20.242C40.3248 21.2445 41.0733 22.3872 41.6347 23.6303L41.6414 23.6369ZM40.6656 26.3168C40.8929 26.1898 40.7258 26.3636 40.6189 26.5307C39.9172 27.6734 39.6632 28.0276 38.5605 28.8496C37.9791 29.284 37.538 29.3375 36.843 29.4979C35.4396 29.8253 33.9426 30.0993 32.5659 30.4803C32.0246 30.6273 31.6103 30.8879 31.1425 31.1686C31.9177 29.8454 31.9043 29.7919 33.1808 28.8029C34.8782 27.4863 35.9208 27.5665 37.939 27.1589L38.0927 27.1254C38.9548 26.9517 39.8904 26.7178 40.6723 26.3034L40.6656 26.3168ZM30.815 32.826C30.7549 32.7725 30.7816 32.7525 30.8551 32.6589C31.2694 32.1109 31.8776 31.7768 32.5192 31.5495C33.3278 31.2622 35.1455 31.0951 35.9742 31.3424C36.2215 31.4159 36.0544 31.5161 35.8807 31.7032C34.9918 32.6455 34.2634 32.8193 33.0204 32.9262C32.3788 32.9797 31.5033 32.9062 30.8551 32.8393L30.8217 32.826H30.815Z" fill="white"/>
</svg>
