<svg width="13" height="13" viewBox="0 0 13 13" fill="none" xmlns="http://www.w3.org/2000/svg">
<path fill-rule="evenodd" clip-rule="evenodd" d="M11.7501 8.53718C10.9691 8.53718 10.2015 8.4107 9.47375 8.16678C9.10989 8.04031 8.69721 8.13968 8.46203 8.3836L7.02433 9.48575C5.36032 8.58235 4.33529 7.53892 3.4567 5.85407L4.50835 4.4312C4.78347 4.15115 4.88109 3.74913 4.76128 3.36518C4.52166 2.61988 4.39742 1.83843 4.39742 1.04343C4.39742 0.469771 3.93593 0 3.37239 0H1.02503C0.461485 0 0 0.469771 0 1.04343C0 7.63829 5.26714 13 11.7457 13C12.3092 13 12.7707 12.5302 12.7707 11.9566V9.5761C12.7707 9.00243 12.3092 8.53266 11.7457 8.53266L11.7501 8.53718ZM12.0652 11.9611C12.0652 12.1372 11.9232 12.2818 11.7501 12.2818C5.6665 12.2818 0.714414 7.24079 0.714414 1.04795C0.714414 0.871786 0.856409 0.727241 1.02947 0.727241H3.37683C3.54988 0.727241 3.69188 0.871786 3.69188 1.04795C3.69188 1.91974 3.825 2.77797 4.09124 3.59104C4.12674 3.713 4.10011 3.83496 3.98031 3.96143L2.76003 5.60563C2.68016 5.71404 2.66685 5.8631 2.72453 5.98506C3.7185 7.97707 4.9299 9.2057 6.90008 10.2356C7.01989 10.2988 7.16632 10.2853 7.27726 10.204L8.92795 8.93016C9.01226 8.84434 9.13651 8.81723 9.25188 8.85337C10.055 9.12439 10.8981 9.2599 11.7545 9.2599C11.9276 9.2599 12.0696 9.40445 12.0696 9.58061V11.9611H12.0652Z" fill="#C1D7EF"/>
</svg>
