<svg width="16" height="12" viewBox="0 0 16 12" fill="none" xmlns="http://www.w3.org/2000/svg">
<path fill-rule="evenodd" clip-rule="evenodd" d="M14.1862 0H1.29127C0.581295 0 0 0.587213 0 1.31445V10.5021C0 11.2248 0.576857 11.8165 1.29127 11.8165H14.1862C14.8962 11.8165 15.4775 11.2293 15.4775 10.5021V1.31445C15.4775 0.59173 14.9006 0 14.1862 0ZM1.29127 0.654969H14.1862C14.235 0.654969 14.275 0.673037 14.3193 0.682071C13.2011 1.72099 9.50037 5.17199 8.20466 6.35546C8.1026 6.45031 7.93842 6.55872 7.73874 6.55872C7.53462 6.55872 7.37043 6.4458 7.27281 6.35546C5.97711 5.16748 2.27636 1.72099 1.15814 0.682071C1.20252 0.673037 1.2469 0.654969 1.29127 0.654969ZM0.64785 10.5021V1.31445C0.64785 1.25122 0.6656 1.19249 0.683349 1.13377C1.53976 1.92877 4.1223 4.33635 5.79518 5.88568C4.12674 7.34468 1.53976 9.83808 0.678914 10.6737C0.665602 10.6195 0.643415 10.5653 0.643415 10.5021H0.64785ZM14.1862 11.1571H1.29127C1.23802 11.1571 1.19364 11.139 1.14483 11.1254C2.03674 10.2627 4.63259 7.75573 6.27441 6.32384C6.4874 6.52259 6.68265 6.70327 6.83796 6.84329C7.1042 7.08721 7.41482 7.21821 7.73874 7.21821C8.06267 7.21821 8.37328 7.08721 8.63952 6.84329C8.79483 6.70327 8.99007 6.52259 9.20306 6.32384C10.8449 7.75122 13.4452 10.2582 14.3326 11.1254C14.2838 11.139 14.2395 11.1571 14.1862 11.1571ZM14.8296 10.5021C14.8296 10.5653 14.8119 10.6195 14.7941 10.6737C13.9333 9.83808 11.3507 7.34468 9.67786 5.88568C11.3507 4.33635 13.9377 1.92877 14.7897 1.13377C14.8074 1.19249 14.8252 1.25122 14.8252 1.31445V10.5021H14.8296Z" fill="#C1D7EF"/>
</svg>
