<svg width="430" height="72" viewBox="0 0 430 72" fill="none" xmlns="http://www.w3.org/2000/svg">
<path d="M41.99 3.61C42.4567 2.95666 43.0167 2.88666 43.67 3.4C44.23 3.77333 44.3233 4.24 43.95 4.8C37.3233 14.1333 31.35 24.3067 26.03 35.32C23.4633 40.64 21.27 45.7733 19.45 50.72C19.9167 57.1133 19.0767 63.7633 16.93 70.67C16.79 71.1833 16.4633 71.4633 15.95 71.51C15.4833 71.5567 15.11 71.37 14.83 70.95C14.3167 70.1567 13.92 69.3167 13.64 68.43C13.36 67.5433 13.2433 66.54 13.29 65.42C13.3367 64.3467 13.36 63.46 13.36 62.76C13.4067 62.1067 13.6167 61.1033 13.99 59.75C14.41 58.3967 14.6667 57.5333 14.76 57.16C14.9 56.7867 15.2033 55.8533 15.67 54.36C16.09 53.1933 16.5567 51.8867 17.07 50.44C16.8833 47.92 16.4633 45.47 15.81 43.09C14.9233 39.6833 13.22 35.32 10.7 30C7.57333 36.2533 4.96 41.9933 2.86 47.22C2.67333 47.64 2.37 47.8967 1.95 47.99C1.48333 48.0367 1.11 47.92 0.83 47.64C0.55 47.36 0.48 47.01 0.62 46.59C2.95333 40.8033 5.89333 34.41 9.44 27.41C9.39333 27.27 9.37 27.2 9.37 27.2C9.27667 27.0133 8.97333 26.43 8.46 25.45C7.99333 24.47 7.66667 23.7933 7.48 23.42C7.34 23 7.08333 22.3467 6.71 21.46C6.38333 20.5267 6.17333 19.78 6.08 19.22C6.03333 18.66 6.01 18.0067 6.01 17.26C6.05667 16.5133 6.19667 15.8367 6.43 15.23C6.99 13.7367 8.01667 12.6167 9.51 11.87C11.05 11.0767 12.5667 10.96 14.06 11.52C15.04 11.8467 15.7633 12.3833 16.23 13.13C16.6967 13.83 16.93 14.6233 16.93 15.51C16.93 16.3967 16.8133 17.26 16.58 18.1C16.3467 18.94 16.02 19.7567 15.6 20.55V20.62H15.53C14.2233 23.0467 13.0567 25.31 12.03 27.41C12.6367 28.67 13.0333 29.4867 13.22 29.86C16.0667 35.88 17.9333 41.27 18.82 46.03C19.8933 43.3233 21.1067 40.5233 22.46 37.63C28.06 25.45 34.57 14.11 41.99 3.61ZM9.93 22.93C9.97667 23.1167 10.2567 23.7467 10.77 24.82C11.75 22.9067 12.7533 21.0167 13.78 19.15C15.32 15.93 15.0633 14.0633 13.01 13.55C12.1233 13.3633 11.2367 13.5033 10.35 13.97C9.51 14.4367 8.92667 15.09 8.6 15.93C8.50667 16.21 8.41333 16.4667 8.32 16.7C8.27333 16.9333 8.25 17.2133 8.25 17.54C8.29667 17.82 8.32 18.0767 8.32 18.31C8.32 18.4967 8.36667 18.7767 8.46 19.15C8.55333 19.4767 8.62333 19.7333 8.67 19.92C8.71667 20.06 8.81 20.34 8.95 20.76C9.13667 21.1333 9.25333 21.39 9.3 21.53C9.34667 21.6233 9.44 21.88 9.58 22.3C9.76667 22.6733 9.88333 22.8833 9.93 22.93ZM15.67 66.75C16.51 63.3433 17.0233 60.03 17.21 56.81C15.7633 60.9167 15.25 64.23 15.67 66.75ZM65.5767 29.79C65.7634 29.5567 65.9734 29.44 66.2067 29.44C66.4867 29.3933 66.7201 29.44 66.9067 29.58C67.0934 29.6733 67.2334 29.8367 67.3267 30.07C67.4667 30.2567 67.5134 30.4667 67.4667 30.7C67.4667 30.9333 67.3734 31.1667 67.1867 31.4C66.3001 32.3333 65.6001 33.0567 65.0867 33.57C64.5734 34.0367 63.8267 34.6667 62.8467 35.46C61.9134 36.2533 60.9801 36.8133 60.0467 37.14C59.1134 37.4667 58.2034 37.5833 57.3167 37.49C54.8901 37.2567 53.5834 35.4833 53.3967 32.17C50.4567 34.69 46.3967 36.7667 41.2167 38.4C40.2834 38.7267 39.3034 38.9833 38.2767 39.17C37.2967 39.3567 36.2001 39.4733 34.9867 39.52C33.7734 39.5667 32.6767 39.3567 31.6967 38.89C30.7634 38.4233 30.1101 37.7233 29.7367 36.79C29.3634 36.09 29.2934 35.3667 29.5267 34.62C29.7601 33.8733 30.0867 33.1733 30.5067 32.52C30.9267 31.8667 31.4867 31.2367 32.1867 30.63C32.8867 29.9767 33.5401 29.44 34.1467 29.02C34.7534 28.6 35.3601 28.2267 35.9667 27.9C37.4134 27.06 39.0001 26.4067 40.7267 25.94C42.4534 25.4267 44.2734 25.2167 46.1867 25.31C48.1001 25.4033 49.6867 25.94 50.9467 26.92C51.3201 27.2 51.4834 27.5733 51.4367 28.04C51.3901 28.46 51.2034 28.7633 50.8767 28.95C50.5967 29.1367 50.2467 29.1133 49.8267 28.88C48.7534 28.0867 47.4001 27.6667 45.7667 27.62C44.1334 27.5267 42.5934 27.7133 41.1467 28.18C39.7001 28.6 38.3467 29.16 37.0867 29.86C35.4067 30.7933 33.9834 31.9833 32.8167 33.43C31.3234 35.39 31.6734 36.58 33.8667 37C36.1067 37.4667 39.2801 36.8833 43.3867 35.25C48.1467 33.3367 51.6234 31.12 53.8167 28.6C54.0967 28.2733 54.4934 28.2267 55.0067 28.46C55.5201 28.6467 55.7767 28.9733 55.7767 29.44C55.6834 30.0933 55.6367 30.7 55.6367 31.26C55.6834 31.82 55.7534 32.4267 55.8467 33.08C55.9867 33.6867 56.1967 34.1533 56.4767 34.48C56.8034 34.76 57.2234 34.97 57.7367 35.11C58.2501 35.25 58.9034 35.11 59.6967 34.69C61.2367 33.99 63.1967 32.3567 65.5767 29.79ZM102.698 11.73C103.398 11.6367 103.748 11.94 103.748 12.64C103.748 13.3867 103.398 13.8533 102.698 14.04C94.3447 15.1133 85.898 15.9533 77.358 16.56C76.798 17.6333 76.2614 18.66 75.748 19.64C74.1147 22.58 72.9247 24.7267 72.178 26.08C71.478 27.3867 70.4047 29.2067 68.958 31.54C67.5114 33.8267 66.158 35.8333 64.898 37.56C64.8047 37.6533 64.7114 37.7233 64.618 37.77C61.4447 46.2633 58.458 55.0367 55.658 64.09C55.518 64.5567 55.238 64.8133 54.818 64.86C54.398 64.9533 54.048 64.86 53.768 64.58C53.4414 64.3 53.348 63.95 53.488 63.53C55.9147 55.5967 58.9714 46.7067 62.658 36.86C62.7047 36.72 62.7747 36.58 62.868 36.44C63.848 33.8733 64.5247 32.0767 64.898 31.05C67.3247 24.75 69.1914 20.0833 70.498 17.05C63.9647 17.4233 57.4314 17.6567 50.898 17.75C50.4314 17.75 50.1047 17.5633 49.918 17.19C49.7314 16.8167 49.7314 16.4433 49.918 16.07C50.1047 15.65 50.4314 15.44 50.898 15.44C57.6647 15.3467 64.548 15.09 71.548 14.67C73.0414 11.3567 74.488 8.37 75.888 5.71C75.9814 5.57 76.168 5.22 76.448 4.66C76.728 4.05333 76.938 3.63333 77.078 3.4C77.2647 3.12 77.498 2.74666 77.778 2.28C78.058 1.81333 78.338 1.44 78.618 1.16C78.9447 0.879997 79.2714 0.62333 79.598 0.389997C80.298 -0.0300036 80.9514 -0.100003 81.558 0.179999C82.2114 0.459998 82.6314 0.996665 82.818 1.79C82.8647 2.11666 82.888 2.44333 82.888 2.77C82.9347 3.09666 82.9114 3.47 82.818 3.89C82.7247 4.26333 82.6314 4.61333 82.538 4.94C82.4914 5.26666 82.3747 5.64 82.188 6.06C82.048 6.48 81.9314 6.83 81.838 7.11C81.7447 7.34333 81.5814 7.67 81.348 8.09C81.1614 8.51 81.0447 8.81333 80.998 9C80.298 10.5867 79.4814 12.3133 78.548 14.18C86.7614 13.5733 94.8114 12.7567 102.698 11.73ZM74.768 13.2C74.7214 13.34 74.6514 13.48 74.558 13.62C74.5114 13.76 74.4414 13.9233 74.348 14.11C74.3014 14.25 74.2547 14.39 74.208 14.53C74.348 14.4833 74.628 14.46 75.048 14.46C75.468 14.4133 75.7947 14.39 76.028 14.39C78.548 9.67667 80.0414 5.75667 80.508 2.63C80.368 2.86333 80.1114 3.21333 79.738 3.68C79.4114 4.14666 79.178 4.52 79.038 4.8C77.918 6.66667 76.4947 9.46667 74.768 13.2ZM73.788 18.45C74.0214 18.03 74.3247 17.47 74.698 16.77C74.3247 16.77 73.8114 16.7933 73.158 16.84C71.5247 20.5267 69.9614 24.2367 68.468 27.97C69.588 26.01 71.3614 22.8367 73.788 18.45ZM131.836 31.05C132.349 30.49 132.886 30.5133 133.446 31.12C133.913 31.6333 133.913 32.1467 133.446 32.66C133.259 32.8933 132.699 33.57 131.766 34.69C130.833 35.81 130.133 36.6033 129.666 37.07C129.246 37.49 128.616 38.12 127.776 38.96C126.936 39.7533 126.143 40.4067 125.396 40.92C124.649 41.4333 123.879 41.8533 123.086 42.18C122.199 42.6 121.219 42.6933 120.146 42.46C119.073 42.2267 118.349 41.62 117.976 40.64C117.883 40.36 117.813 40.08 117.766 39.8C117.766 39.52 117.813 39.24 117.906 38.96C118.046 38.6333 118.163 38.3767 118.256 38.19C118.349 37.9567 118.489 37.6767 118.676 37.35C118.909 37.0233 119.073 36.79 119.166 36.65C119.306 36.51 119.493 36.2767 119.726 35.95C119.773 35.9033 120.123 35.4833 120.776 34.69C121.476 33.85 121.966 33.1967 122.246 32.73C122.759 31.89 122.736 31.4 122.176 31.26C121.616 31.0733 120.916 31.0733 120.076 31.26C119.983 31.26 119.913 31.26 119.866 31.26C119.819 31.26 119.749 31.2833 119.656 31.33C119.609 31.33 119.563 31.33 119.516 31.33C119.049 31.3767 118.279 31.47 117.206 31.61C116.179 31.7033 115.339 31.7733 114.686 31.82C114.033 31.8667 113.263 31.9133 112.376 31.96C111.489 31.96 110.649 31.89 109.856 31.75C109.063 31.61 108.339 31.4 107.686 31.12C107.406 31.3067 107.126 31.5167 106.846 31.75C106.566 31.9833 106.263 32.2167 105.936 32.45C105.656 32.6367 105.446 32.8 105.306 32.94C101.199 36.3 97.5594 38.19 94.3861 38.61C93.1261 38.7967 92.1461 38.5633 91.4461 37.91C90.7928 37.21 90.4428 36.3233 90.3961 35.25C90.3494 34.1767 90.3728 33.0567 90.4661 31.89C87.9461 34.5033 85.4028 36.6033 82.8361 38.19C82.7428 38.2367 82.6261 38.3067 82.4861 38.4C81.9261 38.7267 81.4828 38.9833 81.1561 39.17C80.8761 39.3567 80.4328 39.6133 79.8261 39.94C79.2661 40.22 78.7528 40.43 78.2861 40.57C77.8661 40.71 77.3994 40.85 76.8861 40.99C76.3728 41.13 75.8594 41.2 75.3461 41.2C74.8794 41.1533 74.4128 41.0367 73.9461 40.85C72.9661 40.4767 72.2661 39.8467 71.8461 38.96C71.4728 38.0733 71.3794 37.0467 71.5661 35.88C71.7994 34.7133 72.1028 33.5467 72.4761 32.38C72.8961 31.2133 73.4561 30 74.1561 28.74C74.9028 27.4333 75.5094 26.4067 75.9761 25.66C76.4428 24.8667 76.9328 24.12 77.4461 23.42C77.8661 22.7667 78.4261 22.6967 79.1261 23.21C79.6861 23.5833 79.7794 24.05 79.4061 24.61C77.4928 27.3633 76.0228 30.1167 74.9961 32.87C74.8561 33.2433 74.7394 33.57 74.6461 33.85C74.5528 34.13 74.4361 34.48 74.2961 34.9C74.2028 35.32 74.1328 35.6933 74.0861 36.02C74.0394 36.3 74.0161 36.65 74.0161 37.07C74.0161 37.4433 74.0628 37.7233 74.1561 37.91C74.2961 38.0967 74.4594 38.3067 74.6461 38.54C74.8794 38.7267 75.1828 38.7967 75.5561 38.75C75.9761 38.7033 76.4428 38.6333 76.9561 38.54C79.5694 37.7933 82.0428 36.4633 84.3761 34.55C86.7094 32.59 89.0894 30.21 91.5161 27.41C91.8894 26.99 92.2861 26.92 92.7061 27.2C93.1728 27.4333 93.3828 27.8067 93.3361 28.32C93.4294 28.5533 93.4528 28.7633 93.4061 28.95C93.3594 29.0433 93.2194 29.5333 92.9861 30.42C92.7528 31.26 92.5894 31.9367 92.4961 32.45C92.4028 32.9167 92.3561 33.5 92.3561 34.2C92.3561 34.8533 92.4728 35.3667 92.7061 35.74C92.7994 35.88 92.9161 35.9967 93.0561 36.09C93.1961 36.1833 93.3361 36.2533 93.4761 36.3C93.6161 36.3467 93.7561 36.3933 93.8961 36.44C94.0361 36.44 94.1994 36.4167 94.3861 36.37C94.6194 36.3233 94.8061 36.2767 94.9461 36.23C95.0861 36.1833 95.2728 36.1133 95.5061 36.02C95.7394 35.9267 95.9028 35.88 95.9961 35.88C96.0894 35.8333 96.2528 35.7633 96.4861 35.67C96.7194 35.53 96.8594 35.46 96.9061 35.46C99.7061 34.2 102.179 32.6367 104.326 30.77C104.326 30.77 104.349 30.77 104.396 30.77C104.816 30.3967 105.236 30.0467 105.656 29.72C103.976 28.0867 103.533 26.29 104.326 24.33C104.653 23.4433 105.446 22.6033 106.706 21.81C107.966 20.97 109.249 20.55 110.556 20.55C111.909 20.55 112.773 21.1567 113.146 22.37C113.799 24.33 112.656 26.6633 109.716 29.37C110.696 29.5567 112.143 29.6033 114.056 29.51C114.616 29.4633 115.363 29.37 116.296 29.23C117.229 29.09 118.046 28.9733 118.746 28.88C119.493 28.74 120.286 28.6933 121.126 28.74C122.013 28.74 122.759 28.8567 123.366 29.09C123.926 29.3233 124.346 29.6267 124.626 30C124.953 30.3267 125.093 30.7233 125.046 31.19C125.046 31.6567 124.976 32.1 124.836 32.52C124.743 32.8933 124.509 33.36 124.136 33.92C123.809 34.4333 123.529 34.83 123.296 35.11C123.063 35.39 122.759 35.7633 122.386 36.23C122.339 36.37 122.293 36.4633 122.246 36.51C122.153 36.5567 121.919 36.79 121.546 37.21C121.173 37.63 120.869 38.0033 120.636 38.33C120.449 38.6567 120.333 38.96 120.286 39.24C120.239 39.66 120.309 39.9633 120.496 40.15C120.729 40.3367 121.033 40.3833 121.406 40.29C121.779 40.15 122.129 40.01 122.456 39.87C122.783 39.73 123.086 39.5667 123.366 39.38C124.019 39.0067 124.626 38.5867 125.186 38.12C125.793 37.6533 126.423 37.07 127.076 36.37C127.776 35.6233 128.289 35.0867 128.616 34.76C128.989 34.3867 129.573 33.7333 130.366 32.8C131.206 31.82 131.696 31.2367 131.836 31.05ZM107.126 28.04C107.173 28.0867 107.219 28.1333 107.266 28.18C107.313 28.18 107.336 28.2033 107.336 28.25C107.849 27.7833 108.293 27.34 108.666 26.92C110.673 24.7733 111.326 23.49 110.626 23.07C110.346 22.8833 109.833 22.8833 109.086 23.07C107.873 23.3967 107.009 24.05 106.496 25.03C106.029 25.9633 106.239 26.9667 107.126 28.04ZM164.424 29.79C164.611 29.5567 164.821 29.44 165.054 29.44C165.334 29.3933 165.568 29.44 165.754 29.58C165.941 29.6733 166.081 29.8367 166.174 30.07C166.314 30.2567 166.361 30.4667 166.314 30.7C166.314 30.9333 166.221 31.1667 166.034 31.4C165.148 32.3333 164.448 33.0567 163.934 33.57C163.421 34.0367 162.674 34.6667 161.694 35.46C160.761 36.2533 159.828 36.8133 158.894 37.14C157.961 37.4667 157.051 37.5833 156.164 37.49C153.738 37.2567 152.431 35.4833 152.244 32.17C149.304 34.69 145.244 36.7667 140.064 38.4C139.131 38.7267 138.151 38.9833 137.124 39.17C136.144 39.3567 135.048 39.4733 133.834 39.52C132.621 39.5667 131.524 39.3567 130.544 38.89C129.611 38.4233 128.958 37.7233 128.584 36.79C128.211 36.09 128.141 35.3667 128.374 34.62C128.608 33.8733 128.934 33.1733 129.354 32.52C129.774 31.8667 130.334 31.2367 131.034 30.63C131.734 29.9767 132.388 29.44 132.994 29.02C133.601 28.6 134.208 28.2267 134.814 27.9C136.261 27.06 137.848 26.4067 139.574 25.94C141.301 25.4267 143.121 25.2167 145.034 25.31C146.948 25.4033 148.534 25.94 149.794 26.92C150.168 27.2 150.331 27.5733 150.284 28.04C150.238 28.46 150.051 28.7633 149.724 28.95C149.444 29.1367 149.094 29.1133 148.674 28.88C147.601 28.0867 146.248 27.6667 144.614 27.62C142.981 27.5267 141.441 27.7133 139.994 28.18C138.548 28.6 137.194 29.16 135.934 29.86C134.254 30.7933 132.831 31.9833 131.664 33.43C130.171 35.39 130.521 36.58 132.714 37C134.954 37.4667 138.128 36.8833 142.234 35.25C146.994 33.3367 150.471 31.12 152.664 28.6C152.944 28.2733 153.341 28.2267 153.854 28.46C154.368 28.6467 154.624 28.9733 154.624 29.44C154.531 30.0933 154.484 30.7 154.484 31.26C154.531 31.82 154.601 32.4267 154.694 33.08C154.834 33.6867 155.044 34.1533 155.324 34.48C155.651 34.76 156.071 34.97 156.584 35.11C157.098 35.25 157.751 35.11 158.544 34.69C160.084 33.99 162.044 32.3567 164.424 29.79ZM177.353 2.35C177.12 8.09 176 13.6433 173.993 19.01C171.986 24.33 169.163 29.1133 165.523 33.36C165.29 34.0133 164.87 35.1567 164.263 36.79C163.656 38.3767 163.143 39.7533 162.723 40.92C162.256 42.0867 161.813 43.2067 161.393 44.28C161.206 44.7 160.903 44.9567 160.483 45.05C160.016 45.1433 159.643 45.05 159.363 44.77C159.083 44.49 159.013 44.14 159.153 43.72C160.926 39.0533 163.563 32.1 167.063 22.86C170.563 13.5733 173.2 6.62 174.973 2C175.253 1.25333 175.79 1.04333 176.583 1.37C176.63 1.37 176.7 1.39333 176.793 1.44H176.863C177.19 1.67333 177.353 1.97667 177.353 2.35ZM168.673 24.96C171.146 20.6667 172.92 16 173.993 10.96C170.633 19.78 168.86 24.4467 168.673 24.96ZM254.315 31.82C254.689 31.54 255.085 31.4933 255.505 31.68C255.925 31.82 256.182 32.0767 256.275 32.45C256.369 32.7767 256.252 33.1033 255.925 33.43C252.939 35.81 249.789 37.7 246.475 39.1C244.189 40.0333 242.159 40.1033 240.385 39.31C238.612 38.5167 237.259 36.9767 236.325 34.69C236.092 34.13 235.859 33.43 235.625 32.59C235.392 31.7033 235.135 30.8633 234.855 30.07C234.622 29.2767 234.342 28.6 234.015 28.04C232.989 28.3667 232.032 28.67 231.145 28.95C227.459 30.07 224.449 30.7933 222.115 31.12L211.545 53.52C211.265 53.94 210.939 54.15 210.565 54.15C210.192 54.15 209.865 53.9633 209.585 53.59C209.352 53.2167 209.329 52.82 209.515 52.4C210.635 50.0667 212.292 46.5667 214.485 41.9C216.725 37.2333 218.382 33.7333 219.455 31.4C217.309 31.54 216.002 30.98 215.535 29.72C215.302 29.16 215.279 28.6233 215.465 28.11C215.699 27.55 216.095 27.0133 216.655 26.5C217.262 25.9867 217.752 25.6133 218.125 25.38C218.545 25.1 219.059 24.75 219.665 24.33C219.759 24.2833 219.829 24.2367 219.875 24.19C221.135 23.49 222.395 22.9533 223.655 22.58L232.685 3.47C232.685 3.47 232.709 3.44667 232.755 3.4C229.955 3.96 227.109 4.73 224.215 5.71C216.982 8.23 211.662 10.9833 208.255 13.97C205.595 16.3033 204.405 18.7067 204.685 21.18C204.872 22.58 205.432 23.77 206.365 24.75C207.299 25.6833 208.442 26.1033 209.795 26.01C210.215 25.9633 210.519 26.1267 210.705 26.5C210.892 26.8733 210.892 27.27 210.705 27.69C210.519 28.0633 210.215 28.2733 209.795 28.32C208.395 28.4133 207.135 28.11 206.015 27.41C204.895 26.71 204.079 25.8 203.565 24.68C203.005 23.56 202.655 22.3233 202.515 20.97C202.329 19.6167 202.515 18.3567 203.075 17.19C203.495 16.1633 204.055 15.1833 204.755 14.25C205.455 13.27 206.342 12.3833 207.415 11.59C208.489 10.7967 209.469 10.0967 210.355 9.49C211.242 8.88333 212.385 8.25333 213.785 7.6C215.232 6.94667 216.305 6.45667 217.005 6.13C217.752 5.80333 218.849 5.36 220.295 4.8C227.762 1.72 235.089 0.156665 242.275 0.109996C244.002 0.109996 245.542 0.179996 246.895 0.319997C248.249 0.41333 249.742 0.646663 251.375 1.02C253.055 1.39333 254.502 2.04666 255.715 2.98C256.975 3.86666 257.932 4.98666 258.585 6.34C259.099 7.32 259.379 8.27666 259.425 9.21C259.519 10.0967 259.379 10.96 259.005 11.8C258.632 12.5933 258.212 13.34 257.745 14.04C257.279 14.6933 256.602 15.3933 255.715 16.14C254.875 16.84 254.152 17.4233 253.545 17.89C252.985 18.31 252.239 18.8233 251.305 19.43C246.592 22.6033 241.552 25.2167 236.185 27.27C236.559 28.0167 236.955 29.1833 237.375 30.77C237.842 32.3567 238.239 33.5 238.565 34.2C239.965 37.28 242.112 38.3067 245.005 37.28C245.752 37 247.269 36.2767 249.555 35.11C250.955 34.3633 252.542 33.2667 254.315 31.82ZM234.645 4.59C233.992 5.99 232.709 8.72 230.795 12.78C228.929 16.7933 227.459 19.8967 226.385 22.09C227.039 22.0433 227.645 22.0433 228.205 22.09C230.959 22.3233 233.175 23.3967 234.855 25.31C237.982 24.1433 240.875 22.8367 243.535 21.39C246.102 20.0367 248.575 18.5433 250.955 16.91C251.049 16.8633 251.375 16.6533 251.935 16.28C252.495 15.86 252.869 15.58 253.055 15.44C253.242 15.3 253.569 15.0433 254.035 14.67C254.549 14.2967 254.922 13.9933 255.155 13.76C255.389 13.48 255.669 13.1533 255.995 12.78C256.322 12.4067 256.555 12.0333 256.695 11.66C256.882 11.2867 257.022 10.89 257.115 10.47C257.442 8.69666 256.905 7.15666 255.505 5.85C254.152 4.54333 252.519 3.65666 250.605 3.19C248.365 2.63 245.425 2.37333 241.785 2.42C239.359 2.46667 236.839 2.7 234.225 3.12C234.785 3.54 234.925 4.03 234.645 4.59ZM220.225 29.09C220.272 29.09 220.342 29.09 220.435 29.09C220.529 29.0433 220.575 29.02 220.575 29.02L222.255 25.59C221.555 25.9167 220.879 26.29 220.225 26.71C218.872 27.5967 218.195 28.1333 218.195 28.32C218.195 28.9733 218.872 29.23 220.225 29.09ZM227.715 27.55C229.162 27.1767 230.749 26.71 232.475 26.15C230.562 24.47 228.159 23.91 225.265 24.47C224.845 25.4033 224.192 26.7567 223.305 28.53C224.752 28.25 226.222 27.9233 227.715 27.55ZM279.582 30.21C279.909 29.8833 280.282 29.79 280.702 29.93C281.122 30.07 281.379 30.3267 281.472 30.7C281.565 31.0733 281.472 31.4467 281.192 31.82C275.919 37.14 269.385 39.7067 261.592 39.52C260.845 39.4733 260.075 39.4033 259.282 39.31C258.535 39.17 257.742 38.96 256.902 38.68C256.062 38.4 255.362 38.0267 254.802 37.56C254.289 37.0933 253.869 36.51 253.542 35.81C253.262 35.11 253.285 34.2933 253.612 33.36C254.219 31.3067 255.665 29.6033 257.952 28.25C260.285 26.8967 262.735 25.9867 265.302 25.52C266.002 25.38 266.749 25.31 267.542 25.31C268.382 25.31 269.245 25.4033 270.132 25.59C271.019 25.73 271.695 26.1033 272.162 26.71C272.629 27.27 272.745 28.0167 272.512 28.95C272.325 29.79 271.835 30.5833 271.042 31.33C270.295 32.0767 269.502 32.66 268.662 33.08C267.822 33.5 266.749 33.8967 265.442 34.27C264.182 34.6433 263.179 34.9 262.432 35.04C261.732 35.18 260.845 35.3433 259.772 35.53C259.305 35.6233 258.932 35.5067 258.652 35.18C258.372 34.8067 258.279 34.4333 258.372 34.06C258.465 33.64 258.722 33.4067 259.142 33.36C259.795 33.22 260.659 33.0333 261.732 32.8C262.805 32.52 264.112 32.1467 265.652 31.68C267.192 31.2133 268.405 30.6533 269.292 30C270.225 29.3 270.529 28.6233 270.202 27.97C269.735 27.13 267.799 27.1533 264.392 28.04C261.825 28.74 259.702 29.79 258.022 31.19C257.462 31.61 256.995 32.0767 256.622 32.59C256.295 33.0567 256.062 33.5467 255.922 34.06C255.782 34.5733 255.852 35.0633 256.132 35.53C256.459 35.95 256.995 36.3 257.742 36.58C259.189 37.14 261.405 37.3267 264.392 37.14C270.319 36.7667 275.382 34.4567 279.582 30.21ZM326.24 30.98C326.613 30.7 327.01 30.6533 327.43 30.84C327.85 30.98 328.106 31.2367 328.2 31.61C328.293 31.9367 328.176 32.2867 327.85 32.66C327.756 32.7533 327.29 33.1733 326.45 33.92C325.61 34.62 325.026 35.0867 324.7 35.32C324.42 35.5533 323.883 35.95 323.09 36.51C322.343 37.07 321.713 37.4667 321.2 37.7C320.733 37.9333 320.15 38.19 319.45 38.47C318.75 38.75 318.096 38.9133 317.49 38.96C315.903 39.1467 314.76 38.8433 314.06 38.05C313.36 37.21 313.033 35.9967 313.08 34.41C313.08 34.3633 313.103 34.1533 313.15 33.78C313.196 33.36 313.22 33.0333 313.22 32.8C313.22 32.52 313.15 32.3333 313.01 32.24C312.59 31.82 311.423 31.89 309.51 32.45C307.83 32.87 305.706 33.9667 303.14 35.74C302.906 35.88 302.16 36.4633 300.9 37.49C299.686 38.47 298.59 39.2167 297.61 39.73C296.676 40.1967 295.79 40.3833 294.95 40.29C294.763 40.29 294.576 40.22 294.39 40.08C294.203 40.1267 294.016 40.1033 293.83 40.01C292.243 39.2633 291.986 37.7233 293.06 35.39C293.06 35.3433 293.34 34.8533 293.9 33.92C294.46 32.9867 294.763 32.2867 294.81 31.82C294.856 31.12 294.576 30.77 293.97 30.77C293.41 30.7233 292.826 30.84 292.22 31.12C290.54 31.5867 288.743 32.45 286.83 33.71C284.963 34.97 283.493 36.0667 282.42 37C281.393 37.8867 279.946 39.2167 278.08 40.99C277.94 41.13 277.776 41.2233 277.59 41.27C277.17 41.5967 276.726 41.6433 276.26 41.41C275.746 41.13 275.583 40.71 275.77 40.15C277.59 35.4833 279.713 30.91 282.14 26.43C282.373 26.0567 282.676 25.87 283.05 25.87C283.47 25.87 283.796 26.0567 284.03 26.43C284.263 26.8033 284.286 27.1767 284.1 27.55C282.606 30.35 281.183 33.2433 279.83 36.23C284.59 32.03 288.743 29.51 292.29 28.67C293.503 28.39 294.623 28.46 295.65 28.88C296.723 29.2533 297.26 30.0467 297.26 31.26C297.26 31.5867 297.003 32.31 296.49 33.43C295.976 34.5033 295.533 35.5067 295.16 36.44C294.786 37.3267 294.716 37.8633 294.95 38.05C295.183 38.05 295.416 38.0267 295.65 37.98C295.93 37.8867 296.21 37.77 296.49 37.63C296.77 37.4433 297.003 37.28 297.19 37.14C297.423 37 297.68 36.8133 297.96 36.58C298.24 36.3467 298.426 36.2067 298.52 36.16C301.413 34.1533 303.046 33.0333 303.42 32.8C307.573 30.2333 310.886 29.2767 313.36 29.93C314.2 30.1633 314.736 30.6067 314.97 31.26C315.25 31.9133 315.32 32.59 315.18 33.29C315.086 33.9433 315.063 34.62 315.11 35.32C315.203 35.9733 315.506 36.44 316.02 36.72C316.3 36.9533 316.673 37.0233 317.14 36.93C317.653 36.8367 318.12 36.7433 318.54 36.65C318.96 36.51 319.45 36.2767 320.01 35.95C320.616 35.5767 321.13 35.25 321.55 34.97C322.016 34.6433 322.506 34.27 323.02 33.85C323.58 33.3833 324.023 33.01 324.35 32.73C324.723 32.4033 325.096 32.0767 325.47 31.75C325.843 31.3767 326.1 31.12 326.24 30.98ZM350.813 30.21C351.139 29.8833 351.513 29.79 351.933 29.93C352.353 30.07 352.609 30.3267 352.703 30.7C352.796 31.0733 352.703 31.4467 352.423 31.82C347.149 37.14 340.616 39.7067 332.823 39.52C332.076 39.4733 331.306 39.4033 330.513 39.31C329.766 39.17 328.973 38.96 328.133 38.68C327.293 38.4 326.593 38.0267 326.033 37.56C325.519 37.0933 325.099 36.51 324.773 35.81C324.492 35.11 324.516 34.2933 324.843 33.36C325.449 31.3067 326.896 29.6033 329.182 28.25C331.516 26.8967 333.966 25.9867 336.533 25.52C337.233 25.38 337.979 25.31 338.773 25.31C339.613 25.31 340.476 25.4033 341.363 25.59C342.249 25.73 342.926 26.1033 343.393 26.71C343.859 27.27 343.976 28.0167 343.743 28.95C343.556 29.79 343.066 30.5833 342.273 31.33C341.526 32.0767 340.733 32.66 339.893 33.08C339.053 33.5 337.979 33.8967 336.673 34.27C335.413 34.6433 334.409 34.9 333.663 35.04C332.963 35.18 332.076 35.3433 331.003 35.53C330.536 35.6233 330.163 35.5067 329.883 35.18C329.603 34.8067 329.509 34.4333 329.603 34.06C329.696 33.64 329.953 33.4067 330.373 33.36C331.026 33.22 331.889 33.0333 332.963 32.8C334.036 32.52 335.343 32.1467 336.883 31.68C338.423 31.2133 339.636 30.6533 340.523 30C341.456 29.3 341.759 28.6233 341.433 27.97C340.966 27.13 339.029 27.1533 335.623 28.04C333.056 28.74 330.933 29.79 329.253 31.19C328.693 31.61 328.226 32.0767 327.853 32.59C327.526 33.0567 327.293 33.5467 327.153 34.06C327.013 34.5733 327.083 35.0633 327.363 35.53C327.689 35.95 328.226 36.3 328.973 36.58C330.419 37.14 332.636 37.3267 335.623 37.14C341.549 36.7667 346.613 34.4567 350.813 30.21ZM380.091 1.79C380.231 1.37 380.511 1.11333 380.931 1.02C381.398 0.926665 381.771 1.02 382.051 1.3C382.331 1.58 382.401 1.95333 382.261 2.42C380.161 9 378.294 14.1333 376.661 17.82C376.148 18.9867 375.611 20.1533 375.051 21.32C371.411 30.84 368.214 39.3333 365.461 46.8C365.321 47.22 365.018 47.4767 364.551 47.57C364.131 47.6633 363.758 47.57 363.431 47.29C363.151 47.01 363.104 46.66 363.291 46.24C364.131 43.9533 365.951 39.03 368.751 31.47C363.618 38.0033 357.948 41.2233 351.741 41.13C349.688 41.0833 348.334 40.43 347.681 39.17C347.028 37.8633 346.981 36.44 347.541 34.9C348.148 33.3133 349.034 31.9367 350.201 30.77C352.628 28.53 355.498 27.2 358.811 26.78C362.124 26.3133 365.204 26.92 368.051 28.6C369.731 26.36 371.271 23.84 372.671 21.04C375.471 13.8067 377.944 7.39 380.091 1.79ZM359.091 36.93C361.424 35.67 363.711 33.78 365.951 31.26C365.998 31.2133 366.044 31.1667 366.091 31.12C366.138 31.0267 366.184 30.9567 366.231 30.91C366.324 30.8167 366.394 30.7467 366.441 30.7C366.488 30.6067 366.534 30.5133 366.581 30.42C364.714 29.3933 362.754 28.88 360.701 28.88C358.648 28.88 356.664 29.3933 354.751 30.42C354.238 30.6533 353.584 31.12 352.791 31.82C351.998 32.4733 351.204 33.2667 350.411 34.2C349.664 35.0867 349.244 35.9267 349.151 36.72C349.058 37.5133 349.454 38.1667 350.341 38.68C351.041 39.0533 351.998 39.1467 353.211 38.96C354.424 38.7267 355.474 38.4467 356.361 38.12C357.294 37.7467 358.204 37.35 359.091 36.93ZM389.546 31.05C390.153 30.5833 390.643 30.6767 391.016 31.33C391.389 31.9833 391.296 32.5433 390.736 33.01C387.049 35.81 383.783 37.91 380.936 39.31C378.089 40.6633 376.036 40.7567 374.776 39.59C374.123 38.9367 373.679 38.12 373.446 37.14C373.259 36.16 373.213 35.25 373.306 34.41C373.399 33.5233 373.633 32.4967 374.006 31.33C374.426 30.1167 374.776 29.1833 375.056 28.53C375.383 27.8767 375.779 27.0833 376.246 26.15C376.526 25.73 376.853 25.52 377.226 25.52C377.599 25.52 377.903 25.7067 378.136 26.08C378.416 26.4533 378.439 26.85 378.206 27.27C378.066 27.5967 377.926 27.9 377.786 28.18C377.646 28.46 377.436 28.9033 377.156 29.51C376.876 30.1167 376.643 30.7 376.456 31.26C376.316 31.7733 376.129 32.38 375.896 33.08C375.709 33.7333 375.593 34.3167 375.546 34.83C375.546 35.3433 375.569 35.8567 375.616 36.37C375.663 36.8367 375.826 37.2333 376.106 37.56C376.433 37.84 376.853 38.0033 377.366 38.05C377.833 38.1433 378.416 38.05 379.116 37.77C379.816 37.49 380.399 37.2333 380.866 37C381.333 36.72 381.963 36.3 382.756 35.74C383.596 35.18 384.063 34.8767 384.156 34.83C385.883 33.7567 387.679 32.4967 389.546 31.05ZM379.396 23.14C379.209 23.5133 378.883 23.7 378.416 23.7C377.996 23.7 377.669 23.5133 377.436 23.14C377.249 22.72 377.249 22.3233 377.436 21.95C377.669 21.5767 377.996 21.39 378.416 21.39C378.883 21.39 379.209 21.5767 379.396 21.95C379.629 22.3233 379.629 22.72 379.396 23.14ZM414.318 30.21C414.645 29.8833 415.018 29.79 415.438 29.93C415.858 30.07 416.115 30.3267 416.208 30.7C416.302 31.0733 416.208 31.4467 415.928 31.82C410.655 37.14 404.122 39.7067 396.328 39.52C395.582 39.4733 394.812 39.4033 394.018 39.31C393.272 39.17 392.478 38.96 391.638 38.68C390.798 38.4 390.098 38.0267 389.538 37.56C389.025 37.0933 388.605 36.51 388.278 35.81C387.998 35.11 388.022 34.2933 388.348 33.36C388.955 31.3067 390.402 29.6033 392.688 28.25C395.022 26.8967 397.472 25.9867 400.038 25.52C400.738 25.38 401.485 25.31 402.278 25.31C403.118 25.31 403.982 25.4033 404.868 25.59C405.755 25.73 406.432 26.1033 406.898 26.71C407.365 27.27 407.482 28.0167 407.248 28.95C407.062 29.79 406.572 30.5833 405.778 31.33C405.032 32.0767 404.238 32.66 403.398 33.08C402.558 33.5 401.485 33.8967 400.178 34.27C398.918 34.6433 397.915 34.9 397.168 35.04C396.468 35.18 395.582 35.3433 394.508 35.53C394.042 35.6233 393.668 35.5067 393.388 35.18C393.108 34.8067 393.015 34.4333 393.108 34.06C393.202 33.64 393.458 33.4067 393.878 33.36C394.532 33.22 395.395 33.0333 396.468 32.8C397.542 32.52 398.848 32.1467 400.388 31.68C401.928 31.2133 403.142 30.6533 404.028 30C404.962 29.3 405.265 28.6233 404.938 27.97C404.472 27.13 402.535 27.1533 399.128 28.04C396.562 28.74 394.438 29.79 392.758 31.19C392.198 31.61 391.732 32.0767 391.358 32.59C391.032 33.0567 390.798 33.5467 390.658 34.06C390.518 34.5733 390.588 35.0633 390.868 35.53C391.195 35.95 391.732 36.3 392.478 36.58C393.925 37.14 396.142 37.3267 399.128 37.14C405.055 36.7667 410.118 34.4567 414.318 30.21ZM428.226 30.56C428.693 30.42 429.066 30.5133 429.346 30.84C429.626 31.1667 429.719 31.54 429.626 31.96C429.579 32.38 429.323 32.66 428.856 32.8C425.356 33.7333 422.836 34.48 421.296 35.04C421.716 35.5067 421.996 35.81 422.136 35.95C422.883 36.8367 423.209 37.7467 423.116 38.68C423.023 39.6133 422.696 40.4533 422.136 41.2C421.623 41.9467 420.899 42.67 419.966 43.37C419.033 44.0233 418.123 44.5833 417.236 45.05C416.349 45.5167 415.509 45.89 414.716 46.17C411.403 47.29 409.046 47.3367 407.646 46.31C406.153 45.2367 406.339 43.4633 408.206 40.99C410.259 38.2833 413.246 36.0433 417.166 34.27C416.653 33.85 416.279 33.5233 416.046 33.29C414.226 31.47 413.176 29.9767 412.896 28.81C412.663 27.83 412.779 26.8967 413.246 26.01C413.713 25.1233 414.389 24.3767 415.276 23.77C416.209 23.1633 417.143 22.6733 418.076 22.3C419.009 21.88 419.919 21.5533 420.806 21.32C421.273 21.2267 421.646 21.3433 421.926 21.67C422.206 21.9967 422.299 22.37 422.206 22.79C422.113 23.1633 421.856 23.42 421.436 23.56C419.103 24.0733 417.306 24.96 416.046 26.22C415.673 26.5933 415.416 26.9433 415.276 27.27C415.136 27.5967 415.113 27.9467 415.206 28.32C415.299 28.6467 415.439 28.9733 415.626 29.3C415.813 29.58 416.069 29.9067 416.396 30.28C416.956 30.98 417.983 31.9833 419.476 33.29C421.436 32.5433 424.353 31.6333 428.226 30.56ZM420.456 37.56C420.223 37.0467 419.779 36.4867 419.126 35.88C415.439 37.42 412.593 39.3567 410.586 41.69C410.213 42.11 409.933 42.4833 409.746 42.81C409.513 43.09 409.349 43.4167 409.256 43.79C409.116 44.1167 409.186 44.3733 409.466 44.56C409.699 44.7 410.143 44.7467 410.796 44.7C411.729 44.7 412.943 44.42 414.436 43.86C414.996 43.6267 415.533 43.3933 416.046 43.16C416.606 42.9267 417.236 42.6 417.936 42.18C418.683 41.7133 419.243 41.27 419.616 40.85C420.036 40.3833 420.386 39.87 420.666 39.31C420.946 38.7033 420.876 38.12 420.456 37.56Z" fill="white"/>
</svg>
