<svg width="52" height="55" viewBox="0 0 52 55" fill="none" xmlns="http://www.w3.org/2000/svg">
<path fill-rule="evenodd" clip-rule="evenodd" d="M22.3064 1.36812C26.6012 1.36812 30.5965 2.65463 33.931 4.86507C35.1305 5.6602 34.8124 7.39992 33.4776 7.93773C32.3505 8.39005 32.0421 8.70767 31.0692 9.26854C30.5406 9.57411 29.0091 9.52184 28.3504 9.52385C27.3715 9.52586 26.4505 9.44746 25.4796 9.35097C23.5176 9.15597 20.3684 9.07757 18.7108 10.2737C17.976 10.8044 17.5416 11.4537 17.1432 12.2578L17.0591 12.4368C16.7648 13.0841 17.0891 14.1777 17.1892 14.9094C17.4815 17.0705 17.4755 18.8496 16.4245 20.8197C15.996 21.5675 15.6917 22.066 15.7918 22.9586C15.9 23.5758 17.3834 24.9729 17.8459 25.5639C18.5586 26.4746 18.7828 27.343 19.1492 28.4406C19.6197 29.8599 19.6958 30.6881 19.6037 32.1838C19.5816 32.5014 19.0751 32.7869 18.8389 32.9698C18.4705 33.2553 18.0942 33.5327 17.7258 33.8202C16.3744 34.8836 15.3034 35.8546 14.0281 36.9884C12.6987 38.1684 11.7458 38.7574 10.5946 40.1908C10.5765 40.2135 10.544 40.2185 10.52 40.2022C4.8842 36.3909 1.17518 29.9238 1.17518 22.5887C1.17518 10.8687 10.6367 1.36812 22.3064 1.36812ZM37.6906 8.04168C37.6914 8.04207 37.6921 8.04259 37.6927 8.04323C39.174 9.62315 40.4174 11.4318 41.364 13.4101C41.5066 13.708 41.3883 14.0742 41.0812 14.1958C40.851 14.2902 40.6188 14.3827 40.3865 14.4752C38.6768 15.1466 36.927 15.7216 35.2293 16.4151C30.2363 18.4556 28.3805 19.2697 24.4265 23.041C24.1642 23.2923 24.0481 23.628 24.0842 23.1978C24.1903 21.9032 24.1863 20.5744 24.6287 19.3361C25.5176 16.8513 26.3084 15.814 28.0261 13.8801C29.1352 12.6921 32.0241 10.8908 33.4776 9.92993C34.2263 9.4354 35.9341 8.76798 36.833 8.37397C37.0963 8.25976 37.3836 8.14754 37.6848 8.04131C37.6867 8.04064 37.6888 8.04077 37.6906 8.04168ZM42.9547 18.0451C42.9542 18.0446 42.9534 18.045 42.9536 18.0457C43.2716 19.5085 43.4396 21.0295 43.4396 22.5887C43.4396 34.3087 33.9781 43.8093 22.3064 43.8093C20.6208 43.8093 18.9815 43.6113 17.4103 43.237C15.4516 42.7704 15.1795 40.1713 17.0831 39.5153C18.6928 38.9605 21.7879 37.9734 23.0852 37.0125C24.7188 35.7299 25.928 33.6634 25.6678 31.5284C25.5788 30.9222 26.0333 30.3824 26.6457 30.403C28.6745 30.4712 30.2697 30.618 32.2944 29.3533C33.6488 28.436 34.6428 27.7552 35.1349 26.2045C35.1915 26.0263 35.0774 25.8399 34.8953 25.7971C34.5097 25.7064 34.5343 25.1599 34.9271 25.1078C36.1833 24.9413 37.253 24.623 38.6748 23.5758C38.867 23.431 39.0212 23.2963 39.1973 23.1315C40.4806 21.7987 41.7559 19.8145 42.809 18.2646C42.8609 18.1884 42.9088 18.1161 42.9548 18.0459C42.955 18.0456 42.9549 18.0453 42.9547 18.0451ZM9.81662 41.1557C9.81613 41.1557 9.81567 41.1559 9.81537 41.1563C8.58429 42.6779 7.35126 44.2337 6.47049 45.9683C6.16819 46.5634 5.91393 47.0257 5.52755 47.5746C4.61063 48.7847 3.95397 49.4542 3.40942 50.9217C3.04305 51.9047 2.71072 52.9259 2.0901 53.7823C1.8919 54.0557 2.53454 54.1562 2.74275 54.1361C3.54556 54.0517 3.84586 53.4084 4.27028 52.8435C4.86088 52.0555 5.51153 52.743 6.19021 50.8131C6.95097 48.2058 6.68471 47.5504 8.7688 45.3512C9.01387 45.0922 9.31691 44.801 9.66276 44.49C11.0881 43.2081 13.1604 43.1206 14.9699 43.7536C17.2687 44.5579 19.7388 44.9954 22.3104 44.9954C34.6348 44.9954 44.6228 34.964 44.6228 22.5907C44.6228 21.0925 44.4757 19.6293 44.1964 18.2139C43.9836 17.1354 44.0436 16.0044 44.4366 14.9778C44.7289 14.2139 44.9631 13.8339 45.5637 13.271C46.2204 12.6901 46.2904 12.6559 46.813 11.8839C48.3405 9.56606 49.866 6.60491 50.5687 3.91113C50.6889 3.4367 50.789 2.9663 50.8871 2.48785C50.9052 2.39663 50.9345 2.21228 50.9693 1.97381C51.2251 0.216368 50.399 -0.155319 49.0452 0.994204C48.0022 1.88074 46.9771 2.64867 45.7619 3.28593C44.5327 3.87696 43.7719 4.20463 42.4786 4.65092C41.8591 4.86514 41.2327 5.08216 40.603 5.30223C38.8079 5.92963 36.8343 5.4722 35.2906 4.36171C31.6348 1.73177 27.1542 0.184059 22.3124 0.184059C9.99002 0.184059 0 10.2154 0 22.5887C0 30.3124 3.89401 37.1238 9.81752 41.1528C9.81884 41.1537 9.8182 41.1557 9.81662 41.1557ZM21.5917 15.5668C21.2187 15.601 21.1284 15.1128 21.367 14.8241C21.9544 14.1136 22.4998 13.7556 23.6037 13.452C24.0744 13.3235 24.3753 13.8483 24.0566 14.2178C23.6721 14.6636 23.2296 15.0348 22.6287 15.3074C22.2764 15.4663 21.972 15.5225 21.5937 15.5668H21.5917ZM42.0099 12.0629C42.3641 12.7302 43.2423 13.025 43.7979 12.5131C44.5367 11.8256 45.3455 11.1663 45.9081 10.3199C47.3035 8.22521 48.7069 6.03198 49.2895 3.55129C49.4776 2.75119 49.5797 2.88789 48.7569 3.41459C46.9591 4.56447 45.2934 5.34446 43.3195 6.13853C42.3365 6.52651 41.5437 6.8361 40.5287 7.15372C39.7825 7.38825 39.5183 8.30852 39.9946 8.92898C40.7493 9.91219 41.4243 10.9598 42.0099 12.0629ZM41.0022 17.8494C41.002 17.8496 41.0023 17.8498 41.0025 17.8497C41.3829 17.6401 41.103 17.9272 40.9251 18.2163C39.7519 20.1442 39.3255 20.7352 37.4796 22.1163C36.5046 22.846 35.7599 22.9325 34.5987 23.2079C32.2484 23.7587 29.7358 24.2211 27.4275 24.8623C26.7501 25.0509 26.0116 24.3141 26.4686 23.7797C26.8864 23.2911 27.4153 22.8565 28.4525 22.0499C31.2994 19.8366 33.0392 19.9713 36.4245 19.2858L36.6808 19.2335C38.1298 18.9361 39.6929 18.5442 41.0019 17.8491C41.0021 17.849 41.0023 17.8493 41.0022 17.8494ZM24.525 28.8191C24.5009 28.8108 24.4778 28.7986 24.4607 28.7797C24.3953 28.7075 24.4451 28.665 24.5526 28.5211C25.2493 27.6044 26.2704 27.0395 27.3394 26.6555C28.7008 26.167 31.7378 25.8956 33.1272 26.3118C33.5457 26.4364 33.2574 26.6073 32.9691 26.9148C31.4836 28.4989 30.2584 28.7945 28.1703 28.9754C27.1046 29.0672 25.6519 28.9429 24.5692 28.829C24.5541 28.8274 24.5394 28.8241 24.525 28.8191Z" fill="#D84727"/>
</svg>
