<svg width="173" height="49" viewBox="0 0 173 49" fill="none" xmlns="http://www.w3.org/2000/svg">
<path d="M32.15 29.19C32.57 29.05 32.92 29.1433 33.2 29.47C33.48 29.75 33.5733 30.1 33.48 30.52C33.4333 30.94 33.1767 31.22 32.71 31.36C30.7033 32.06 28.6967 32.97 26.69 34.09C28.93 36.33 29.4667 38.99 28.3 42.07C27.6933 43.6567 26.7133 45.01 25.36 46.13C24.0533 47.25 22.5833 47.95 20.95 48.23C19.1767 48.51 17.73 48.1833 16.61 47.25C15.49 46.27 15.0467 44.8933 15.28 43.12C15.3733 42.1867 15.63 41.3 16.05 40.46C16.47 39.62 17.0533 38.8267 17.8 38.08C18.5933 37.2867 19.27 36.68 19.83 36.26C20.39 35.7933 21.16 35.21 22.14 34.51C22.2333 34.4167 22.3733 34.3 22.56 34.16C22.7933 34.02 22.9567 33.9267 23.05 33.88C22.3967 33.46 21.65 33.0867 20.81 32.76C19.97 32.3867 19.2233 32.1067 18.57 31.92C17.9633 31.7333 17.17 31.5 16.19 31.22C15.21 30.94 14.51 30.73 14.09 30.59C13.7633 30.4967 12.8533 30.24 11.36 29.82C9.91333 29.4 8.86333 29.0733 8.21 28.84C7.55667 28.6067 6.71667 28.21 5.69 27.65C4.66333 27.09 3.82333 26.5067 3.17 25.9C1.77 24.5 1.04667 22.8667 1 21C0.953333 19.1333 1.44333 17.3133 2.47 15.54C3.49667 13.7667 4.64 12.1567 5.9 10.71C7.16 9.26333 8.46667 8.00333 9.82 6.93C13.04 4.45666 16.5633 2.56666 20.39 1.26C24.2633 -0.0933355 27.8333 -0.280003 31.1 0.699996C32.0333 0.979998 32.8267 1.44667 33.48 2.1C34.18 2.75333 34.6933 3.52333 35.02 4.41C35.3467 5.25 35.51 6.16 35.51 7.14C35.51 8.91333 35.02 10.5233 34.04 11.97C33.06 13.4167 31.7067 15.0033 29.98 16.73C29.6533 17.0567 29.28 17.15 28.86 17.01C28.44 16.87 28.1833 16.6133 28.09 16.24C27.9967 15.8667 28.09 15.4933 28.37 15.12C29.4433 14.0933 30.2133 13.3 30.68 12.74C31.1933 12.18 31.73 11.3633 32.29 10.29C32.8967 9.21666 33.2 8.16666 33.2 7.14C33.2467 4.29333 31.6367 2.75333 28.37 2.52C23.5633 2.19333 18.4767 3.82667 13.11 7.42C7.88333 10.92 4.75667 14.77 3.73 18.97C3.59 19.5767 3.49667 20.1367 3.45 20.65C3.45 21.1633 3.52 21.63 3.66 22.05C3.8 22.47 3.96333 22.8667 4.15 23.24C4.33667 23.6133 4.61667 23.9633 4.99 24.29C5.36333 24.6167 5.69 24.8967 5.97 25.13C6.25 25.3633 6.64667 25.62 7.16 25.9C7.72 26.1333 8.16333 26.32 8.49 26.46C8.86333 26.6 9.35333 26.7867 9.96 27.02C10.5667 27.2067 11.0333 27.3467 11.36 27.44C11.6867 27.5333 12.1767 27.6733 12.83 27.86C13.11 27.9533 13.32 28.0233 13.46 28.07C13.6467 28.1167 13.8567 28.1867 14.09 28.28C14.3233 28.3267 14.5333 28.3733 14.72 28.42C19.62 29.96 23.0033 31.36 24.87 32.62C27.2967 31.1267 29.7233 29.9833 32.15 29.19ZM26.2 37.59C25.92 36.7033 25.43 35.9333 24.73 35.28C22.9567 36.4467 21.37 37.7067 19.97 39.06C17.9167 41.16 17.0767 42.7933 17.45 43.96C17.6833 44.5667 18.1967 45.08 18.99 45.5C19.7833 45.8733 20.4833 45.99 21.09 45.85C21.6967 45.71 22.3267 45.4533 22.98 45.08C24.2867 44.2867 25.2667 43.19 25.92 41.79C26.62 40.3433 26.7133 38.9433 26.2 37.59ZM56.5078 28.21C56.8345 27.8833 57.2078 27.79 57.6278 27.93C58.0478 28.07 58.3045 28.3267 58.3978 28.7C58.4911 29.0733 58.3978 29.4467 58.1178 29.82C52.8445 35.14 46.3111 37.7067 38.5178 37.52C37.7711 37.4733 37.0011 37.4033 36.2078 37.31C35.4611 37.17 34.6678 36.96 33.8278 36.68C32.9878 36.4 32.2878 36.0267 31.7278 35.56C31.2145 35.0933 30.7945 34.51 30.4678 33.81C30.1878 33.11 30.2111 32.2933 30.5378 31.36C31.1445 29.3067 32.5911 27.6033 34.8778 26.25C37.2111 24.8967 39.6611 23.9867 42.2278 23.52C42.9278 23.38 43.6745 23.31 44.4678 23.31C45.3078 23.31 46.1711 23.4033 47.0578 23.59C47.9445 23.73 48.6211 24.1033 49.0878 24.71C49.5545 25.27 49.6711 26.0167 49.4378 26.95C49.2511 27.79 48.7611 28.5833 47.9678 29.33C47.2211 30.0767 46.4278 30.66 45.5878 31.08C44.7478 31.5 43.6745 31.8967 42.3678 32.27C41.1078 32.6433 40.1045 32.9 39.3578 33.04C38.6578 33.18 37.7711 33.3433 36.6978 33.53C36.2311 33.6233 35.8578 33.5067 35.5778 33.18C35.2978 32.8067 35.2045 32.4333 35.2978 32.06C35.3911 31.64 35.6478 31.4067 36.0678 31.36C36.7211 31.22 37.5845 31.0333 38.6578 30.8C39.7311 30.52 41.0378 30.1467 42.5778 29.68C44.1178 29.2133 45.3311 28.6533 46.2178 28C47.1511 27.3 47.4545 26.6233 47.1278 25.97C46.6611 25.13 44.7245 25.1533 41.3178 26.04C38.7511 26.74 36.6278 27.79 34.9478 29.19C34.3878 29.61 33.9211 30.0767 33.5478 30.59C33.2211 31.0567 32.9878 31.5467 32.8478 32.06C32.7078 32.5733 32.7778 33.0633 33.0578 33.53C33.3845 33.95 33.9211 34.3 34.6678 34.58C36.1145 35.14 38.3311 35.3267 41.3178 35.14C47.2445 34.7667 52.3078 32.4567 56.5078 28.21ZM80.3023 28C80.8157 27.3933 81.329 27.4167 81.8423 28.07C82.309 28.5833 82.3323 29.0967 81.9123 29.61C81.8657 29.6567 81.5623 30.0067 81.0023 30.66C80.4423 31.3133 79.9523 31.8733 79.5323 32.34C79.159 32.76 78.599 33.3667 77.8523 34.16C77.1523 34.9067 76.499 35.5367 75.8923 36.05C75.2857 36.5633 74.5857 37.1467 73.7923 37.8C73.0457 38.4067 72.3457 38.85 71.6923 39.13C71.0857 39.3633 70.4557 39.55 69.8023 39.69C69.149 39.83 68.5423 39.76 67.9823 39.48C67.469 39.1533 67.0023 38.6633 66.5823 38.01C66.209 37.31 66.2557 36.4233 66.7223 35.35C67.2357 34.2767 67.889 33.2967 68.6823 32.41C69.4757 31.5233 70.129 30.66 70.6423 29.82C71.1557 28.98 71.2257 28.42 70.8523 28.14C70.759 27.9533 70.3623 27.8833 69.6623 27.93C69.009 27.93 68.379 27.9767 67.7723 28.07C67.2123 28.1167 66.5823 28.21 65.8823 28.35C65.1823 28.49 64.739 28.56 64.5523 28.56C61.939 28.7933 60.0257 28.84 58.8123 28.7C58.6257 28.9333 58.369 29.2833 58.0423 29.75C57.669 30.17 57.389 30.4967 57.2023 30.73C56.9223 31.0567 56.5723 31.1967 56.1523 31.15C55.6857 31.1033 55.359 30.94 55.1723 30.66C54.9857 30.3333 55.009 29.96 55.2423 29.54C55.3357 29.4467 55.7323 28.9567 56.4323 28.07C54.239 27.2767 52.909 25.9933 52.4423 24.22C52.1157 23.0533 52.5823 21.7467 53.8423 20.3C55.0557 18.8067 56.3857 17.8967 57.8323 17.57C59.2323 17.1967 60.3757 17.57 61.2623 18.69C62.009 20.1367 61.6123 22.7267 60.0723 26.46C61.0057 26.5067 62.6623 26.4367 65.0423 26.25C65.3223 26.2033 65.8823 26.1333 66.7223 26.04C67.5623 25.9 68.2623 25.8067 68.8223 25.76C69.3823 25.6667 70.0123 25.6667 70.7123 25.76C71.4123 25.8533 71.9723 26.04 72.3923 26.32C72.8123 26.6 73.1157 26.9267 73.3023 27.3C73.5357 27.6733 73.6057 28.07 73.5123 28.49C73.4657 28.8633 73.3723 29.2367 73.2323 29.61C73.139 29.9367 72.929 30.3567 72.6023 30.87C72.3223 31.3367 72.0657 31.71 71.8323 31.99C71.6457 32.2233 71.3657 32.5733 70.9923 33.04C70.619 33.46 70.3857 33.74 70.2923 33.88C70.2457 33.9267 70.1057 34.09 69.8723 34.37C69.639 34.65 69.429 34.8833 69.2423 35.07C69.1023 35.2567 68.9623 35.49 68.8223 35.77C68.6823 36.0033 68.6123 36.2133 68.6123 36.4C68.6123 36.82 68.7523 37.1 69.0323 37.24C69.3123 37.3333 69.6623 37.31 70.0823 37.17C70.5023 36.9833 70.8757 36.82 71.2023 36.68C71.529 36.4933 71.8323 36.3067 72.1123 36.12C72.6257 35.7933 73.139 35.3967 73.6523 34.93C74.2123 34.4633 74.679 34.0667 75.0523 33.74C75.4257 33.4133 75.8923 32.9467 76.4523 32.34C77.059 31.6867 77.479 31.2433 77.7123 31.01C77.9457 30.73 78.389 30.1933 79.0423 29.4C79.7423 28.6067 80.1623 28.14 80.3023 28ZM56.0823 21.21C55.429 21.6767 55.0323 22.1667 54.8923 22.68C54.7057 23.1933 54.7523 23.66 55.0323 24.08C55.3123 24.5 55.6857 24.8967 56.1523 25.27C56.619 25.5967 57.1557 25.8533 57.7623 26.04C58.509 24.5 58.9057 23.1467 58.9523 21.98C58.9523 21.9333 58.9757 21.8167 59.0223 21.63C59.0223 21.4433 59.0223 21.3267 59.0223 21.28C59.0223 21.2333 59.0223 21.1167 59.0223 20.93C58.9757 20.7433 58.9523 20.65 58.9523 20.65C58.9057 20.6033 58.859 20.51 58.8123 20.37C58.7657 20.23 58.6957 20.1833 58.6023 20.23C58.509 20.23 58.4157 20.2067 58.3223 20.16C58.1823 20.0667 58.019 20.0667 57.8323 20.16C57.5057 20.2067 56.9223 20.5567 56.0823 21.21ZM90.9046 24.36C91.5113 23.8467 92.0946 23.8933 92.6546 24.5C93.1213 25.06 93.0746 25.55 92.5146 25.97C87.8946 29.5633 84.0913 33.8567 81.1046 38.85C80.9179 39.1767 80.6379 39.3633 80.2646 39.41C79.8913 39.4567 79.5646 39.34 79.2846 39.06C78.9579 38.78 78.7479 38.4067 78.6546 37.94C78.5613 37.4267 78.5379 37.0067 78.5846 36.68C78.6313 36.3067 78.7246 35.7933 78.8646 35.14C79.0513 34.4867 79.1679 34.0667 79.2146 33.88C79.6346 31.5467 80.1946 28.42 80.8946 24.5C80.9879 24.0333 81.2213 23.7767 81.5946 23.73C82.0146 23.6367 82.3879 23.73 82.7146 24.01C83.0413 24.29 83.1813 24.6633 83.1346 25.13C82.9013 26.25 82.5046 28.3267 81.9446 31.36C81.7579 32.5733 81.5946 33.5067 81.4546 34.16C84.1613 30.4267 87.3113 27.16 90.9046 24.36ZM107.273 29.05C107.879 28.5833 108.369 28.6767 108.743 29.33C109.116 29.9833 109.023 30.5433 108.463 31.01C104.776 33.81 101.509 35.91 98.6626 37.31C95.8159 38.6633 93.7626 38.7567 92.5026 37.59C91.8492 36.9367 91.4059 36.12 91.1726 35.14C90.9859 34.16 90.9392 33.25 91.0326 32.41C91.1259 31.5233 91.3592 30.4967 91.7326 29.33C92.1526 28.1167 92.5026 27.1833 92.7826 26.53C93.1092 25.8767 93.5059 25.0833 93.9726 24.15C94.2526 23.73 94.5792 23.52 94.9526 23.52C95.3259 23.52 95.6292 23.7067 95.8626 24.08C96.1426 24.4533 96.1659 24.85 95.9326 25.27C95.7926 25.5967 95.6526 25.9 95.5126 26.18C95.3726 26.46 95.1626 26.9033 94.8826 27.51C94.6026 28.1167 94.3692 28.7 94.1826 29.26C94.0426 29.7733 93.8559 30.38 93.6226 31.08C93.4359 31.7333 93.3192 32.3167 93.2726 32.83C93.2726 33.3433 93.2959 33.8567 93.3426 34.37C93.3892 34.8367 93.5526 35.2333 93.8326 35.56C94.1592 35.84 94.5792 36.0033 95.0926 36.05C95.5592 36.1433 96.1426 36.05 96.8426 35.77C97.5426 35.49 98.1259 35.2333 98.5926 35C99.0592 34.72 99.6892 34.3 100.483 33.74C101.323 33.18 101.789 32.8767 101.883 32.83C103.609 31.7567 105.406 30.4967 107.273 29.05ZM97.1226 21.14C96.9359 21.5133 96.6092 21.7 96.1426 21.7C95.7226 21.7 95.3959 21.5133 95.1626 21.14C94.9759 20.72 94.9759 20.3233 95.1626 19.95C95.3959 19.5767 95.7226 19.39 96.1426 19.39C96.6092 19.39 96.9359 19.5767 97.1226 19.95C97.3559 20.3233 97.3559 20.72 97.1226 21.14ZM113.583 24.85C114.983 24.2433 116.336 23.8 117.643 23.52C118.996 23.24 120.373 23.31 121.773 23.73C123.22 24.1033 124.27 24.9433 124.923 26.25C125.11 26.67 125.063 27.0667 124.783 27.44C124.55 27.8133 124.246 28 123.873 28C123.5 28 123.196 27.8133 122.963 27.44C122.543 26.6 121.89 26.04 121.003 25.76C120.163 25.4333 119.23 25.41 118.203 25.69C117.176 25.9233 116.243 26.2267 115.403 26.6C114.61 26.9267 113.84 27.3 113.093 27.72C112.673 27.9533 112.23 28.2333 111.763 28.56C111.296 28.8867 110.76 29.2833 110.153 29.75C109.593 30.2167 109.103 30.7067 108.683 31.22C108.31 31.7333 107.983 32.2467 107.703 32.76C107.47 33.2733 107.423 33.7867 107.563 34.3C107.703 34.7667 108.076 35.1867 108.683 35.56C111.016 37.0533 114.026 37.2167 117.713 36.05C121.82 34.79 126.953 32.2933 133.113 28.56C133.486 28.3267 133.86 28.35 134.233 28.63C134.606 28.8633 134.793 29.1667 134.793 29.54C134.793 29.9133 134.606 30.2633 134.233 30.59C129.94 33.1567 125.996 35.21 122.403 36.75C118.856 38.2433 116.173 39.0133 114.353 39.06C113.513 39.1067 112.626 39.06 111.693 38.92C110.76 38.78 109.803 38.5467 108.823 38.22C107.843 37.8933 107.003 37.4033 106.303 36.75C105.65 36.0967 105.276 35.3267 105.183 34.44C105.043 33.4133 105.23 32.3867 105.743 31.36C106.256 30.3333 106.98 29.4 107.913 28.56C108.893 27.72 109.85 27.02 110.783 26.46C111.716 25.8533 112.65 25.3167 113.583 24.85ZM157.475 28.21C157.801 27.8833 158.175 27.79 158.595 27.93C159.015 28.07 159.271 28.3267 159.365 28.7C159.458 29.0733 159.365 29.4467 159.085 29.82C153.811 35.14 147.278 37.7067 139.485 37.52C138.738 37.4733 137.968 37.4033 137.175 37.31C136.428 37.17 135.635 36.96 134.795 36.68C133.955 36.4 133.255 36.0267 132.695 35.56C132.181 35.0933 131.761 34.51 131.435 33.81C131.155 33.11 131.178 32.2933 131.505 31.36C132.111 29.3067 133.558 27.6033 135.845 26.25C138.178 24.8967 140.628 23.9867 143.195 23.52C143.895 23.38 144.641 23.31 145.435 23.31C146.275 23.31 147.138 23.4033 148.025 23.59C148.911 23.73 149.588 24.1033 150.055 24.71C150.521 25.27 150.638 26.0167 150.405 26.95C150.218 27.79 149.728 28.5833 148.935 29.33C148.188 30.0767 147.395 30.66 146.555 31.08C145.715 31.5 144.641 31.8967 143.335 32.27C142.075 32.6433 141.071 32.9 140.325 33.04C139.625 33.18 138.738 33.3433 137.665 33.53C137.198 33.6233 136.825 33.5067 136.545 33.18C136.265 32.8067 136.171 32.4333 136.265 32.06C136.358 31.64 136.615 31.4067 137.035 31.36C137.688 31.22 138.551 31.0333 139.625 30.8C140.698 30.52 142.005 30.1467 143.545 29.68C145.085 29.2133 146.298 28.6533 147.185 28C148.118 27.3 148.421 26.6233 148.095 25.97C147.628 25.13 145.691 25.1533 142.285 26.04C139.718 26.74 137.595 27.79 135.915 29.19C135.355 29.61 134.888 30.0767 134.515 30.59C134.188 31.0567 133.955 31.5467 133.815 32.06C133.675 32.5733 133.745 33.0633 134.025 33.53C134.351 33.95 134.888 34.3 135.635 34.58C137.081 35.14 139.298 35.3267 142.285 35.14C148.211 34.7667 153.275 32.4567 157.475 28.21ZM171.382 28.56C171.849 28.42 172.222 28.5133 172.502 28.84C172.782 29.1667 172.876 29.54 172.782 29.96C172.736 30.38 172.479 30.66 172.012 30.8C168.512 31.7333 165.992 32.48 164.452 33.04C164.872 33.5067 165.152 33.81 165.292 33.95C166.039 34.8367 166.366 35.7467 166.272 36.68C166.179 37.6133 165.852 38.4533 165.292 39.2C164.779 39.9467 164.056 40.67 163.122 41.37C162.189 42.0233 161.279 42.5833 160.392 43.05C159.506 43.5167 158.666 43.89 157.872 44.17C154.559 45.29 152.202 45.3367 150.802 44.31C149.309 43.2367 149.496 41.4633 151.362 38.99C153.416 36.2833 156.402 34.0433 160.322 32.27C159.809 31.85 159.436 31.5233 159.202 31.29C157.382 29.47 156.332 27.9767 156.052 26.81C155.819 25.83 155.936 24.8967 156.402 24.01C156.869 23.1233 157.546 22.3767 158.432 21.77C159.366 21.1633 160.299 20.6733 161.232 20.3C162.166 19.88 163.076 19.5533 163.962 19.32C164.429 19.2267 164.802 19.3433 165.082 19.67C165.362 19.9967 165.456 20.37 165.362 20.79C165.269 21.1633 165.012 21.42 164.592 21.56C162.259 22.0733 160.462 22.96 159.202 24.22C158.829 24.5933 158.572 24.9433 158.432 25.27C158.292 25.5967 158.269 25.9467 158.362 26.32C158.456 26.6467 158.596 26.9733 158.782 27.3C158.969 27.58 159.226 27.9067 159.552 28.28C160.112 28.98 161.139 29.9833 162.632 31.29C164.592 30.5433 167.509 29.6333 171.382 28.56ZM163.612 35.56C163.379 35.0467 162.936 34.4867 162.282 33.88C158.596 35.42 155.749 37.3567 153.742 39.69C153.369 40.11 153.089 40.4833 152.902 40.81C152.669 41.09 152.506 41.4167 152.412 41.79C152.272 42.1167 152.342 42.3733 152.622 42.56C152.856 42.7 153.299 42.7467 153.952 42.7C154.886 42.7 156.099 42.42 157.592 41.86C158.152 41.6267 158.689 41.3933 159.202 41.16C159.762 40.9267 160.392 40.6 161.092 40.18C161.839 39.7133 162.399 39.27 162.772 38.85C163.192 38.3833 163.542 37.87 163.822 37.31C164.102 36.7033 164.032 36.12 163.612 35.56Z" fill="white"/>
</svg>
